solid OpenSCAD_Model
  facet normal -0.000000 0.000000 -1.000000
    outer loop
      vertex -10.000000 0.000000 0.000000
      vertex -9.781476 2.079117 0.000000
      vertex -9.781476 -2.079117 0.000000
    endloop
  endfacet
  facet normal 0.000000 -0.000000 -1.000000
    outer loop
      vertex -9.781476 -2.079117 0.000000
      vertex -9.781476 2.079117 0.000000
      vertex -9.135455 4.067366 0.000000
    endloop
  endfacet
  facet normal 0.000000 0.000000 -1.000000
    outer loop
      vertex -9.781476 -2.079117 0.000000
      vertex -9.135455 4.067366 0.000000
      vertex -8.090170 5.877853 0.000000
    endloop
  endfacet
  facet normal 0.000000 0.000000 -1.000000
    outer loop
      vertex -9.781476 -2.079117 0.000000
      vertex -8.090170 5.877853 0.000000
      vertex -6.691306 7.431448 0.000000
    endloop
  endfacet
  facet normal 0.000000 0.000000 -1.000000
    outer loop
      vertex -9.781476 -2.079117 0.000000
      vertex -6.691306 7.431448 0.000000
      vertex -5.000000 8.660254 0.000000
    endloop
  endfacet
  facet normal 0.000000 0.000000 -1.000000
    outer loop
      vertex -9.781476 -2.079117 0.000000
      vertex -5.000000 8.660254 0.000000
      vertex -3.090170 9.510565 0.000000
    endloop
  endfacet
  facet normal 0.000000 0.000000 -1.000000
    outer loop
      vertex -9.781476 -2.079117 0.000000
      vertex -3.090170 9.510565 0.000000
      vertex -1.045285 9.945219 0.000000
    endloop
  endfacet
  facet normal 0.000000 0.000000 -1.000000
    outer loop
      vertex -9.781476 -2.079117 0.000000
      vertex -1.045285 9.945219 0.000000
      vertex 1.045285 9.945219 0.000000
    endloop
  endfacet
  facet normal 0.000000 0.000000 -1.000000
    outer loop
      vertex -9.781476 -2.079117 0.000000
      vertex 1.045285 9.945219 0.000000
      vertex 3.090170 9.510565 0.000000
    endloop
  endfacet
  facet normal 0.000000 0.000000 -1.000000
    outer loop
      vertex -9.781476 -2.079117 0.000000
      vertex 3.090170 9.510565 0.000000
      vertex 5.000000 8.660254 0.000000
    endloop
  endfacet
  facet normal 0.000000 0.000000 -1.000000
    outer loop
      vertex -9.781476 -2.079117 0.000000
      vertex 5.000000 8.660254 0.000000
      vertex 6.691306 7.431448 0.000000
    endloop
  endfacet
  facet normal 0.000000 0.000000 -1.000000
    outer loop
      vertex -9.781476 -2.079117 0.000000
      vertex 6.691306 7.431448 0.000000
      vertex 8.090170 5.877853 0.000000
    endloop
  endfacet
  facet normal 0.000000 0.000000 -1.000000
    outer loop
      vertex -9.781476 -2.079117 0.000000
      vertex 8.090170 5.877853 0.000000
      vertex 8.750000 4.734994 0.000000
    endloop
  endfacet
  facet normal 0.000000 0.000000 -1.000000
    outer loop
      vertex -9.781476 -2.079117 0.000000
      vertex 8.750000 4.734994 0.000000
      vertex 8.750000 3.000000 0.000000
    endloop
  endfacet
  facet normal 0.000000 0.000000 -1.000000
    outer loop
      vertex -9.781476 -2.079117 0.000000
      vertex 8.750000 3.000000 0.000000
      vertex 16.000000 3.000000 0.000000
    endloop
  endfacet
  facet normal -0.000000 0.000000 -1.000000
    outer loop
      vertex -9.781476 -2.079117 0.000000
      vertex 16.000000 3.000000 0.000000
      vertex 16.000000 -3.000000 0.000000
    endloop
  endfacet
  facet normal 0.000000 0.000000 -1.000000
    outer loop
      vertex -9.781476 -2.079117 0.000000
      vertex 16.000000 -3.000000 0.000000
      vertex 8.750000 -3.000000 0.000000
    endloop
  endfacet
  facet normal 0.000000 0.000000 -1.000000
    outer loop
      vertex -9.781476 -2.079117 0.000000
      vertex 8.750000 -3.000000 0.000000
      vertex 8.750000 -4.734994 0.000000
    endloop
  endfacet
  facet normal 0.000000 0.000000 -1.000000
    outer loop
      vertex -9.781476 -2.079117 0.000000
      vertex 8.750000 -4.734994 0.000000
      vertex 8.090170 -5.877853 0.000000
    endloop
  endfacet
  facet normal 0.000000 0.000000 -1.000000
    outer loop
      vertex -9.781476 -2.079117 0.000000
      vertex 8.090170 -5.877853 0.000000
      vertex 6.691306 -7.431448 0.000000
    endloop
  endfacet
  facet normal 0.000000 0.000000 -1.000000
    outer loop
      vertex -9.781476 -2.079117 0.000000
      vertex 6.691306 -7.431448 0.000000
      vertex 5.000000 -8.660254 0.000000
    endloop
  endfacet
  facet normal 0.000000 0.000000 -1.000000
    outer loop
      vertex -9.781476 -2.079117 0.000000
      vertex 5.000000 -8.660254 0.000000
      vertex 3.090170 -9.510565 0.000000
    endloop
  endfacet
  facet normal 0.000000 0.000000 -1.000000
    outer loop
      vertex -9.781476 -2.079117 0.000000
      vertex 3.090170 -9.510565 0.000000
      vertex 1.045285 -9.945219 0.000000
    endloop
  endfacet
  facet normal 0.000000 0.000000 -1.000000
    outer loop
      vertex -9.781476 -2.079117 0.000000
      vertex 1.045285 -9.945219 0.000000
      vertex -1.045285 -9.945219 0.000000
    endloop
  endfacet
  facet normal 0.000000 0.000000 -1.000000
    outer loop
      vertex -9.781476 -2.079117 0.000000
      vertex -1.045285 -9.945219 0.000000
      vertex -3.090170 -9.510565 0.000000
    endloop
  endfacet
  facet normal 0.000000 0.000000 -1.000000
    outer loop
      vertex -9.781476 -2.079117 0.000000
      vertex -3.090170 -9.510565 0.000000
      vertex -5.000000 -8.660254 0.000000
    endloop
  endfacet
  facet normal 0.000000 0.000000 -1.000000
    outer loop
      vertex -9.781476 -2.079117 0.000000
      vertex -5.000000 -8.660254 0.000000
      vertex -6.691306 -7.431448 0.000000
    endloop
  endfacet
  facet normal 0.000000 0.000000 -1.000000
    outer loop
      vertex -9.781476 -2.079117 0.000000
      vertex -6.691306 -7.431448 0.000000
      vertex -8.090170 -5.877853 0.000000
    endloop
  endfacet
  facet normal 0.000000 0.000000 -1.000000
    outer loop
      vertex -9.781476 -2.079117 0.000000
      vertex -8.090170 -5.877853 0.000000
      vertex -9.135455 -4.067366 0.000000
    endloop
  endfacet
  facet normal -0.994522 0.104528 0.000000
    outer loop
      vertex -10.000000 0.000000 0.000000
      vertex -10.000000 0.000000 6.000000
      vertex -9.781476 2.079117 0.000000
    endloop
  endfacet
  facet normal -0.994522 0.104528 0.000000
    outer loop
      vertex -9.781476 2.079117 0.000000
      vertex -10.000000 0.000000 6.000000
      vertex -9.781476 2.079117 6.000000
    endloop
  endfacet
  facet normal -0.994522 -0.104528 -0.000000
    outer loop
      vertex -10.000000 0.000000 0.000000
      vertex -9.781476 -2.079117 0.000000
      vertex -10.000000 0.000000 6.000000
    endloop
  endfacet
  facet normal -0.994522 -0.104528 0.000000
    outer loop
      vertex -10.000000 0.000000 6.000000
      vertex -9.781476 -2.079117 0.000000
      vertex -9.781476 -2.079117 6.000000
    endloop
  endfacet
  facet normal -0.951057 -0.309017 -0.000000
    outer loop
      vertex -9.781476 -2.079117 0.000000
      vertex -9.135455 -4.067366 0.000000
      vertex -9.781476 -2.079117 6.000000
    endloop
  endfacet
  facet normal -0.951057 -0.309017 0.000000
    outer loop
      vertex -9.781476 -2.079117 6.000000
      vertex -9.135455 -4.067366 0.000000
      vertex -9.135455 -4.067366 6.000000
    endloop
  endfacet
  facet normal -0.866025 -0.500000 -0.000000
    outer loop
      vertex -9.135455 -4.067366 0.000000
      vertex -8.090170 -5.877853 0.000000
      vertex -9.135455 -4.067366 6.000000
    endloop
  endfacet
  facet normal -0.866025 -0.500000 0.000000
    outer loop
      vertex -9.135455 -4.067366 6.000000
      vertex -8.090170 -5.877853 0.000000
      vertex -8.090170 -5.877853 6.000000
    endloop
  endfacet
  facet normal -0.743145 -0.669131 -0.000000
    outer loop
      vertex -8.090170 -5.877853 0.000000
      vertex -6.691306 -7.431448 0.000000
      vertex -8.090170 -5.877853 6.000000
    endloop
  endfacet
  facet normal -0.743145 -0.669131 0.000000
    outer loop
      vertex -8.090170 -5.877853 6.000000
      vertex -6.691306 -7.431448 0.000000
      vertex -6.691306 -7.431448 6.000000
    endloop
  endfacet
  facet normal -0.587785 -0.809017 0.000000
    outer loop
      vertex -6.691306 -7.431448 6.000000
      vertex -6.691306 -7.431448 0.000000
      vertex -5.000000 -8.660254 0.000000
    endloop
  endfacet
  facet normal -0.587785 -0.809017 0.000000
    outer loop
      vertex -5.000000 -8.660254 6.000000
      vertex -6.691306 -7.431448 6.000000
      vertex -5.000000 -8.660254 0.000000
    endloop
  endfacet
  facet normal -0.406737 -0.913545 0.000000
    outer loop
      vertex -5.000000 -8.660254 6.000000
      vertex -5.000000 -8.660254 0.000000
      vertex -3.090170 -9.510565 0.000000
    endloop
  endfacet
  facet normal -0.406737 -0.913545 0.000000
    outer loop
      vertex -3.090170 -9.510565 6.000000
      vertex -5.000000 -8.660254 6.000000
      vertex -3.090170 -9.510565 0.000000
    endloop
  endfacet
  facet normal -0.207912 -0.978148 0.000000
    outer loop
      vertex -3.090170 -9.510565 6.000000
      vertex -3.090170 -9.510565 0.000000
      vertex -1.045285 -9.945219 0.000000
    endloop
  endfacet
  facet normal -0.207912 -0.978148 0.000000
    outer loop
      vertex -1.045285 -9.945219 6.000000
      vertex -3.090170 -9.510565 6.000000
      vertex -1.045285 -9.945219 0.000000
    endloop
  endfacet
  facet normal 0.000000 -1.000000 0.000000
    outer loop
      vertex -1.045285 -9.945219 6.000000
      vertex -1.045285 -9.945219 0.000000
      vertex 1.045285 -9.945219 0.000000
    endloop
  endfacet
  facet normal 0.000000 -1.000000 0.000000
    outer loop
      vertex 1.045285 -9.945219 6.000000
      vertex -1.045285 -9.945219 6.000000
      vertex 1.045285 -9.945219 0.000000
    endloop
  endfacet
  facet normal 0.207912 -0.978148 0.000000
    outer loop
      vertex 1.045285 -9.945219 6.000000
      vertex 1.045285 -9.945219 0.000000
      vertex 3.090170 -9.510565 0.000000
    endloop
  endfacet
  facet normal 0.207912 -0.978148 0.000000
    outer loop
      vertex 3.090170 -9.510565 6.000000
      vertex 1.045285 -9.945219 6.000000
      vertex 3.090170 -9.510565 0.000000
    endloop
  endfacet
  facet normal 0.406737 -0.913545 0.000000
    outer loop
      vertex 3.090170 -9.510565 6.000000
      vertex 3.090170 -9.510565 0.000000
      vertex 5.000000 -8.660254 0.000000
    endloop
  endfacet
  facet normal 0.406737 -0.913545 0.000000
    outer loop
      vertex 5.000000 -8.660254 6.000000
      vertex 3.090170 -9.510565 6.000000
      vertex 5.000000 -8.660254 0.000000
    endloop
  endfacet
  facet normal 0.587785 -0.809017 0.000000
    outer loop
      vertex 5.000000 -8.660254 6.000000
      vertex 5.000000 -8.660254 0.000000
      vertex 6.691306 -7.431448 0.000000
    endloop
  endfacet
  facet normal 0.587785 -0.809017 0.000000
    outer loop
      vertex 6.691306 -7.431448 6.000000
      vertex 5.000000 -8.660254 6.000000
      vertex 6.691306 -7.431448 0.000000
    endloop
  endfacet
  facet normal 0.743145 -0.669131 0.000000
    outer loop
      vertex 6.691306 -7.431448 6.000000
      vertex 6.691306 -7.431448 0.000000
      vertex 8.090170 -5.877853 0.000000
    endloop
  endfacet
  facet normal 0.743145 -0.669131 0.000000
    outer loop
      vertex 8.090170 -5.877853 6.000000
      vertex 6.691306 -7.431448 6.000000
      vertex 8.090170 -5.877853 0.000000
    endloop
  endfacet
  facet normal 0.866025 -0.500000 0.000000
    outer loop
      vertex 8.090170 -5.877853 6.000000
      vertex 8.090170 -5.877853 0.000000
      vertex 8.750000 -4.734994 0.000000
    endloop
  endfacet
  facet normal 0.866025 -0.500000 0.000000
    outer loop
      vertex 8.750000 -4.734994 6.000000
      vertex 8.090170 -5.877853 6.000000
      vertex 8.750000 -4.734994 0.000000
    endloop
  endfacet
  facet normal 1.000000 0.000000 0.000000
    outer loop
      vertex 8.750000 -3.000000 0.000000
      vertex 8.750000 -3.000000 6.000000
      vertex 8.750000 -4.734994 6.000000
    endloop
  endfacet
  facet normal 1.000000 0.000000 0.000000
    outer loop
      vertex 8.750000 -4.734994 0.000000
      vertex 8.750000 -3.000000 0.000000
      vertex 8.750000 -4.734994 6.000000
    endloop
  endfacet
  facet normal 0.000000 -1.000000 0.000000
    outer loop
      vertex 8.750000 -3.000000 6.000000
      vertex 8.750000 -3.000000 0.000000
      vertex 16.000000 -3.000000 0.000000
    endloop
  endfacet
  facet normal 0.000000 -1.000000 0.000000
    outer loop
      vertex 16.000000 -3.000000 6.000000
      vertex 8.750000 -3.000000 6.000000
      vertex 16.000000 -3.000000 0.000000
    endloop
  endfacet
  facet normal 1.000000 0.000000 -0.000000
    outer loop
      vertex 16.000000 0.000000 0.800000
      vertex 16.000000 -3.000000 0.000000
      vertex 16.000000 3.000000 0.000000
    endloop
  endfacet
  facet normal 1.000000 0.000000 -0.000000
    outer loop
      vertex 16.000000 -3.000000 6.000000
      vertex 16.000000 -3.000000 0.000000
      vertex 16.000000 -1.720029 1.628322
    endloop
  endfacet
  facet normal 1.000000 0.000000 -0.000000
    outer loop
      vertex 16.000000 2.144841 3.489546
      vertex 16.000000 1.720029 1.628322
      vertex 16.000000 3.000000 0.000000
    endloop
  endfacet
  facet normal 1.000000 0.000000 0.000000
    outer loop
      vertex 16.000000 -3.000000 6.000000
      vertex 16.000000 -1.720029 1.628322
      vertex 16.000000 -2.144841 3.489546
    endloop
  endfacet
  facet normal 1.000000 0.000000 0.000000
    outer loop
      vertex 16.000000 3.000000 6.000000
      vertex 16.000000 -3.000000 6.000000
      vertex 16.000000 -0.954544 4.982132
    endloop
  endfacet
  facet normal 1.000000 0.000000 0.000000
    outer loop
      vertex 16.000000 3.000000 6.000000
      vertex 16.000000 -0.954544 4.982132
      vertex 16.000000 0.954544 4.982132
    endloop
  endfacet
  facet normal 1.000000 0.000000 0.000000
    outer loop
      vertex 16.000000 3.000000 6.000000
      vertex 16.000000 2.144841 3.489546
      vertex 16.000000 3.000000 0.000000
    endloop
  endfacet
  facet normal 1.000000 0.000000 0.000000
    outer loop
      vertex 16.000000 3.000000 6.000000
      vertex 16.000000 0.954544 4.982132
      vertex 16.000000 2.144841 3.489546
    endloop
  endfacet
  facet normal 1.000000 0.000000 -0.000000
    outer loop
      vertex 16.000000 -1.720029 1.628322
      vertex 16.000000 -3.000000 0.000000
      vertex 16.000000 0.000000 0.800000
    endloop
  endfacet
  facet normal 1.000000 0.000000 0.000000
    outer loop
      vertex 16.000000 -2.144841 3.489546
      vertex 16.000000 -0.954544 4.982132
      vertex 16.000000 -3.000000 6.000000
    endloop
  endfacet
  facet normal 1.000000 0.000000 -0.000000
    outer loop
      vertex 16.000000 1.720029 1.628322
      vertex 16.000000 0.000000 0.800000
      vertex 16.000000 3.000000 0.000000
    endloop
  endfacet
  facet normal 0.000000 1.000000 0.000000
    outer loop
      vertex 8.750000 3.000000 0.000000
      vertex 8.750000 3.000000 6.000000
      vertex 16.000000 3.000000 0.000000
    endloop
  endfacet
  facet normal 0.000000 1.000000 0.000000
    outer loop
      vertex 16.000000 3.000000 0.000000
      vertex 8.750000 3.000000 6.000000
      vertex 16.000000 3.000000 6.000000
    endloop
  endfacet
  facet normal 1.000000 0.000000 0.000000
    outer loop
      vertex 8.750000 4.734994 0.000000
      vertex 8.750000 4.734994 6.000000
      vertex 8.750000 3.000000 6.000000
    endloop
  endfacet
  facet normal 1.000000 0.000000 0.000000
    outer loop
      vertex 8.750000 3.000000 0.000000
      vertex 8.750000 4.734994 0.000000
      vertex 8.750000 3.000000 6.000000
    endloop
  endfacet
  facet normal 0.866025 0.500000 0.000000
    outer loop
      vertex 8.750000 4.734994 0.000000
      vertex 8.090170 5.877853 0.000000
      vertex 8.090170 5.877853 6.000000
    endloop
  endfacet
  facet normal 0.866025 0.500000 -0.000000
    outer loop
      vertex 8.750000 4.734994 6.000000
      vertex 8.750000 4.734994 0.000000
      vertex 8.090170 5.877853 6.000000
    endloop
  endfacet
  facet normal 0.743145 0.669131 0.000000
    outer loop
      vertex 8.090170 5.877853 0.000000
      vertex 6.691306 7.431448 0.000000
      vertex 6.691306 7.431448 6.000000
    endloop
  endfacet
  facet normal 0.743145 0.669131 -0.000000
    outer loop
      vertex 8.090170 5.877853 6.000000
      vertex 8.090170 5.877853 0.000000
      vertex 6.691306 7.431448 6.000000
    endloop
  endfacet
  facet normal 0.587785 0.809017 0.000000
    outer loop
      vertex 5.000000 8.660254 0.000000
      vertex 5.000000 8.660254 6.000000
      vertex 6.691306 7.431448 0.000000
    endloop
  endfacet
  facet normal 0.587785 0.809017 0.000000
    outer loop
      vertex 6.691306 7.431448 0.000000
      vertex 5.000000 8.660254 6.000000
      vertex 6.691306 7.431448 6.000000
    endloop
  endfacet
  facet normal 0.406737 0.913545 0.000000
    outer loop
      vertex 3.090170 9.510565 0.000000
      vertex 3.090170 9.510565 6.000000
      vertex 5.000000 8.660254 0.000000
    endloop
  endfacet
  facet normal 0.406737 0.913545 0.000000
    outer loop
      vertex 5.000000 8.660254 0.000000
      vertex 3.090170 9.510565 6.000000
      vertex 5.000000 8.660254 6.000000
    endloop
  endfacet
  facet normal 0.207912 0.978148 0.000000
    outer loop
      vertex 1.045285 9.945219 0.000000
      vertex 1.045285 9.945219 6.000000
      vertex 3.090170 9.510565 0.000000
    endloop
  endfacet
  facet normal 0.207912 0.978148 0.000000
    outer loop
      vertex 3.090170 9.510565 0.000000
      vertex 1.045285 9.945219 6.000000
      vertex 3.090170 9.510565 6.000000
    endloop
  endfacet
  facet normal 0.000000 1.000000 0.000000
    outer loop
      vertex -1.045285 9.945219 0.000000
      vertex -1.045285 9.945219 6.000000
      vertex 1.045285 9.945219 0.000000
    endloop
  endfacet
  facet normal 0.000000 1.000000 0.000000
    outer loop
      vertex 1.045285 9.945219 0.000000
      vertex -1.045285 9.945219 6.000000
      vertex 1.045285 9.945219 6.000000
    endloop
  endfacet
  facet normal -0.207912 0.978148 0.000000
    outer loop
      vertex -3.090170 9.510565 0.000000
      vertex -3.090170 9.510565 6.000000
      vertex -1.045285 9.945219 0.000000
    endloop
  endfacet
  facet normal -0.207912 0.978148 0.000000
    outer loop
      vertex -1.045285 9.945219 0.000000
      vertex -3.090170 9.510565 6.000000
      vertex -1.045285 9.945219 6.000000
    endloop
  endfacet
  facet normal -0.406737 0.913545 0.000000
    outer loop
      vertex -5.000000 8.660254 0.000000
      vertex -5.000000 8.660254 6.000000
      vertex -3.090170 9.510565 0.000000
    endloop
  endfacet
  facet normal -0.406737 0.913545 0.000000
    outer loop
      vertex -3.090170 9.510565 0.000000
      vertex -5.000000 8.660254 6.000000
      vertex -3.090170 9.510565 6.000000
    endloop
  endfacet
  facet normal -0.587785 0.809017 0.000000
    outer loop
      vertex -6.691306 7.431448 0.000000
      vertex -6.691306 7.431448 6.000000
      vertex -5.000000 8.660254 0.000000
    endloop
  endfacet
  facet normal -0.587785 0.809017 0.000000
    outer loop
      vertex -5.000000 8.660254 0.000000
      vertex -6.691306 7.431448 6.000000
      vertex -5.000000 8.660254 6.000000
    endloop
  endfacet
  facet normal -0.743145 0.669131 0.000000
    outer loop
      vertex -8.090170 5.877853 0.000000
      vertex -8.090170 5.877853 6.000000
      vertex -6.691306 7.431448 0.000000
    endloop
  endfacet
  facet normal -0.743145 0.669131 0.000000
    outer loop
      vertex -6.691306 7.431448 0.000000
      vertex -8.090170 5.877853 6.000000
      vertex -6.691306 7.431448 6.000000
    endloop
  endfacet
  facet normal -0.866025 0.500000 0.000000
    outer loop
      vertex -9.135455 4.067366 0.000000
      vertex -9.135455 4.067366 6.000000
      vertex -8.090170 5.877853 0.000000
    endloop
  endfacet
  facet normal -0.866025 0.500000 0.000000
    outer loop
      vertex -8.090170 5.877853 0.000000
      vertex -9.135455 4.067366 6.000000
      vertex -8.090170 5.877853 6.000000
    endloop
  endfacet
  facet normal -0.951057 0.309017 0.000000
    outer loop
      vertex -9.781476 2.079117 0.000000
      vertex -9.781476 2.079117 6.000000
      vertex -9.135455 4.067366 0.000000
    endloop
  endfacet
  facet normal -0.951057 0.309017 0.000000
    outer loop
      vertex -9.135455 4.067366 0.000000
      vertex -9.781476 2.079117 6.000000
      vertex -9.135455 4.067366 6.000000
    endloop
  endfacet
  facet normal 0.000000 0.000000 1.000000
    outer loop
      vertex -9.781476 2.079117 6.000000
      vertex -10.000000 0.000000 6.000000
      vertex -9.781476 -2.079117 6.000000
    endloop
  endfacet
  facet normal 0.000000 0.000000 1.000000
    outer loop
      vertex -8.090170 -5.877853 6.000000
      vertex -9.781476 2.079117 6.000000
      vertex -9.135455 -4.067366 6.000000
    endloop
  endfacet
  facet normal 0.000000 0.000000 1.000000
    outer loop
      vertex -9.135455 -4.067366 6.000000
      vertex -9.781476 2.079117 6.000000
      vertex -9.781476 -2.079117 6.000000
    endloop
  endfacet
  facet normal 0.000000 0.000000 1.000000
    outer loop
      vertex -6.691306 -7.431448 6.000000
      vertex -9.781476 2.079117 6.000000
      vertex -8.090170 -5.877853 6.000000
    endloop
  endfacet
  facet normal 0.000000 0.000000 1.000000
    outer loop
      vertex -5.000000 -8.660254 6.000000
      vertex -9.781476 2.079117 6.000000
      vertex -6.691306 -7.431448 6.000000
    endloop
  endfacet
  facet normal 0.000000 0.000000 1.000000
    outer loop
      vertex -3.090170 -9.510565 6.000000
      vertex -9.781476 2.079117 6.000000
      vertex -5.000000 -8.660254 6.000000
    endloop
  endfacet
  facet normal 0.000000 0.000000 1.000000
    outer loop
      vertex -1.045285 -9.945219 6.000000
      vertex -9.781476 2.079117 6.000000
      vertex -3.090170 -9.510565 6.000000
    endloop
  endfacet
  facet normal -0.000000 0.000000 1.000000
    outer loop
      vertex 1.045285 -9.945219 6.000000
      vertex -9.781476 2.079117 6.000000
      vertex -1.045285 -9.945219 6.000000
    endloop
  endfacet
  facet normal -0.000000 0.000000 1.000000
    outer loop
      vertex 3.090170 -9.510565 6.000000
      vertex -9.781476 2.079117 6.000000
      vertex 1.045285 -9.945219 6.000000
    endloop
  endfacet
  facet normal -0.000000 0.000000 1.000000
    outer loop
      vertex 5.000000 -8.660254 6.000000
      vertex -9.781476 2.079117 6.000000
      vertex 3.090170 -9.510565 6.000000
    endloop
  endfacet
  facet normal -0.000000 0.000000 1.000000
    outer loop
      vertex 6.691306 -7.431448 6.000000
      vertex -9.781476 2.079117 6.000000
      vertex 5.000000 -8.660254 6.000000
    endloop
  endfacet
  facet normal -0.000000 0.000000 1.000000
    outer loop
      vertex 8.090170 -5.877853 6.000000
      vertex -9.781476 2.079117 6.000000
      vertex 6.691306 -7.431448 6.000000
    endloop
  endfacet
  facet normal -0.000000 0.000000 1.000000
    outer loop
      vertex 8.750000 -4.734994 6.000000
      vertex -9.781476 2.079117 6.000000
      vertex 8.090170 -5.877853 6.000000
    endloop
  endfacet
  facet normal -0.000000 0.000000 1.000000
    outer loop
      vertex 8.750000 -3.000000 6.000000
      vertex -9.781476 2.079117 6.000000
      vertex 8.750000 -4.734994 6.000000
    endloop
  endfacet
  facet normal -0.000000 0.000000 1.000000
    outer loop
      vertex 16.000000 -3.000000 6.000000
      vertex -9.781476 2.079117 6.000000
      vertex 8.750000 -3.000000 6.000000
    endloop
  endfacet
  facet normal 0.000000 0.000000 1.000000
    outer loop
      vertex 16.000000 3.000000 6.000000
      vertex -9.781476 2.079117 6.000000
      vertex 16.000000 -3.000000 6.000000
    endloop
  endfacet
  facet normal 0.000000 -0.000000 1.000000
    outer loop
      vertex 8.750000 3.000000 6.000000
      vertex -9.781476 2.079117 6.000000
      vertex 16.000000 3.000000 6.000000
    endloop
  endfacet
  facet normal 0.000000 0.000000 1.000000
    outer loop
      vertex 8.750000 4.734994 6.000000
      vertex -9.781476 2.079117 6.000000
      vertex 8.750000 3.000000 6.000000
    endloop
  endfacet
  facet normal 0.000000 -0.000000 1.000000
    outer loop
      vertex 8.090170 5.877853 6.000000
      vertex -9.781476 2.079117 6.000000
      vertex 8.750000 4.734994 6.000000
    endloop
  endfacet
  facet normal 0.000000 -0.000000 1.000000
    outer loop
      vertex 6.691306 7.431448 6.000000
      vertex -9.781476 2.079117 6.000000
      vertex 8.090170 5.877853 6.000000
    endloop
  endfacet
  facet normal 0.000000 -0.000000 1.000000
    outer loop
      vertex 5.000000 8.660254 6.000000
      vertex -9.781476 2.079117 6.000000
      vertex 6.691306 7.431448 6.000000
    endloop
  endfacet
  facet normal 0.000000 -0.000000 1.000000
    outer loop
      vertex 3.090170 9.510565 6.000000
      vertex -9.781476 2.079117 6.000000
      vertex 5.000000 8.660254 6.000000
    endloop
  endfacet
  facet normal 0.000000 -0.000000 1.000000
    outer loop
      vertex 1.045285 9.945219 6.000000
      vertex -9.781476 2.079117 6.000000
      vertex 3.090170 9.510565 6.000000
    endloop
  endfacet
  facet normal 0.000000 -0.000000 1.000000
    outer loop
      vertex -1.045285 9.945219 6.000000
      vertex -9.781476 2.079117 6.000000
      vertex 1.045285 9.945219 6.000000
    endloop
  endfacet
  facet normal 0.000000 -0.000000 1.000000
    outer loop
      vertex -3.090170 9.510565 6.000000
      vertex -9.781476 2.079117 6.000000
      vertex -1.045285 9.945219 6.000000
    endloop
  endfacet
  facet normal 0.000000 -0.000000 1.000000
    outer loop
      vertex -5.000000 8.660254 6.000000
      vertex -9.781476 2.079117 6.000000
      vertex -3.090170 9.510565 6.000000
    endloop
  endfacet
  facet normal 0.000000 -0.000000 1.000000
    outer loop
      vertex -6.691306 7.431448 6.000000
      vertex -9.781476 2.079117 6.000000
      vertex -5.000000 8.660254 6.000000
    endloop
  endfacet
  facet normal 0.000000 -0.000000 1.000000
    outer loop
      vertex -8.090170 5.877853 6.000000
      vertex -9.781476 2.079117 6.000000
      vertex -6.691306 7.431448 6.000000
    endloop
  endfacet
  facet normal 0.000000 -0.000000 1.000000
    outer loop
      vertex -9.135455 4.067366 6.000000
      vertex -9.781476 2.079117 6.000000
      vertex -8.090170 5.877853 6.000000
    endloop
  endfacet
  facet normal -0.000000 0.974928 0.222521
    outer loop
      vertex 16.000000 -1.720029 1.628322
      vertex 12.000000 -1.720029 1.628322
      vertex 16.000000 -2.144841 3.489546
    endloop
  endfacet
  facet normal -0.000000 0.974928 0.222521
    outer loop
      vertex 16.000000 -2.144841 3.489546
      vertex 12.000000 -1.720029 1.628322
      vertex 12.000000 -2.144841 3.489546
    endloop
  endfacet
  facet normal -0.000000 0.433884 0.900969
    outer loop
      vertex 16.000000 -1.720029 1.628322
      vertex 16.000000 0.000000 0.800000
      vertex 12.000000 0.000000 0.800000
    endloop
  endfacet
  facet normal -0.000000 0.433884 0.900969
    outer loop
      vertex 12.000000 -1.720029 1.628322
      vertex 16.000000 -1.720029 1.628322
      vertex 12.000000 0.000000 0.800000
    endloop
  endfacet
  facet normal -0.000000 -0.433884 0.900969
    outer loop
      vertex 12.000000 0.000000 0.800000
      vertex 16.000000 0.000000 0.800000
      vertex 16.000000 1.720029 1.628322
    endloop
  endfacet
  facet normal -0.000000 -0.433884 0.900969
    outer loop
      vertex 12.000000 1.720029 1.628322
      vertex 12.000000 0.000000 0.800000
      vertex 16.000000 1.720029 1.628322
    endloop
  endfacet
  facet normal -0.000000 -0.974928 0.222521
    outer loop
      vertex 12.000000 1.720029 1.628322
      vertex 16.000000 1.720029 1.628322
      vertex 16.000000 2.144841 3.489546
    endloop
  endfacet
  facet normal 0.000000 -0.974928 0.222521
    outer loop
      vertex 12.000000 2.144841 3.489546
      vertex 12.000000 1.720029 1.628322
      vertex 16.000000 2.144841 3.489546
    endloop
  endfacet
  facet normal -0.000000 -0.781832 -0.623490
    outer loop
      vertex 12.000000 2.144841 3.489546
      vertex 16.000000 2.144841 3.489546
      vertex 16.000000 0.954544 4.982132
    endloop
  endfacet
  facet normal -0.000000 -0.781832 -0.623490
    outer loop
      vertex 12.000000 0.954544 4.982132
      vertex 12.000000 2.144841 3.489546
      vertex 16.000000 0.954544 4.982132
    endloop
  endfacet
  facet normal 0.000000 0.000000 -1.000000
    outer loop
      vertex 16.000000 0.954544 4.982132
      vertex 16.000000 -0.954544 4.982132
      vertex 12.000000 0.954544 4.982132
    endloop
  endfacet
  facet normal 0.000000 0.000000 -1.000000
    outer loop
      vertex 12.000000 0.954544 4.982132
      vertex 16.000000 -0.954544 4.982132
      vertex 12.000000 -0.954544 4.982132
    endloop
  endfacet
  facet normal 0.000000 0.781832 -0.623490
    outer loop
      vertex 16.000000 -2.144841 3.489546
      vertex 12.000000 -2.144841 3.489546
      vertex 16.000000 -0.954544 4.982132
    endloop
  endfacet
  facet normal 0.000000 0.781832 -0.623490
    outer loop
      vertex 16.000000 -0.954544 4.982132
      vertex 12.000000 -2.144841 3.489546
      vertex 12.000000 -0.954544 4.982132
    endloop
  endfacet
  facet normal 1.000000 0.000000 0.000000
    outer loop
      vertex 12.000000 -2.144841 3.489546
      vertex 12.000000 -1.720029 1.628322
      vertex 12.000000 0.000000 0.800000
    endloop
  endfacet
  facet normal 1.000000 -0.000000 0.000000
    outer loop
      vertex 12.000000 2.144841 3.489546
      vertex 12.000000 -2.144841 3.489546
      vertex 12.000000 1.720029 1.628322
    endloop
  endfacet
  facet normal 1.000000 -0.000000 0.000000
    outer loop
      vertex 12.000000 1.720029 1.628322
      vertex 12.000000 -2.144841 3.489546
      vertex 12.000000 0.000000 0.800000
    endloop
  endfacet
  facet normal 1.000000 0.000000 -0.000000
    outer loop
      vertex 12.000000 0.954544 4.982132
      vertex 12.000000 -2.144841 3.489546
      vertex 12.000000 2.144841 3.489546
    endloop
  endfacet
  facet normal 1.000000 0.000000 -0.000000
    outer loop
      vertex 12.000000 -0.954544 4.982132
      vertex 12.000000 -2.144841 3.489546
      vertex 12.000000 0.954544 4.982132
    endloop
  endfacet
endsolid OpenSCAD_Model
