solid OpenSCAD_Model
  facet normal -0.000000 -0.000000 -1.000000
    outer loop
      vertex -4.401664 -0.935603 0.000000
      vertex -4.401664 0.935603 0.000000
      vertex -3.640576 -2.645034 0.000000
    endloop
  endfacet
  facet normal 0.000000 0.000000 -1.000000
    outer loop
      vertex -3.640576 -2.645034 0.000000
      vertex -4.401664 0.935603 0.000000
      vertex -3.640576 2.645034 0.000000
    endloop
  endfacet
  facet normal 0.000000 -0.000000 -1.000000
    outer loop
      vertex -3.640576 -2.645034 0.000000
      vertex -3.640576 2.645034 0.000000
      vertex -2.250000 3.897114 0.000000
    endloop
  endfacet
  facet normal 0.000000 0.000000 -1.000000
    outer loop
      vertex -3.640576 -2.645034 0.000000
      vertex -2.250000 3.897114 0.000000
      vertex -0.470378 4.475349 0.000000
    endloop
  endfacet
  facet normal 0.000000 0.000000 -1.000000
    outer loop
      vertex -3.640576 -2.645034 0.000000
      vertex -0.470378 4.475349 0.000000
      vertex 1.390576 4.279754 0.000000
    endloop
  endfacet
  facet normal 0.000000 0.000000 -1.000000
    outer loop
      vertex -3.640576 -2.645034 0.000000
      vertex 1.390576 4.279754 0.000000
      vertex 3.011088 3.344152 0.000000
    endloop
  endfacet
  facet normal 0.000000 0.000000 -1.000000
    outer loop
      vertex -3.640576 -2.645034 0.000000
      vertex 3.011088 3.344152 0.000000
      vertex 4.110955 1.830315 0.000000
    endloop
  endfacet
  facet normal 0.000000 0.000000 -1.000000
    outer loop
      vertex -3.640576 -2.645034 0.000000
      vertex 4.110955 1.830315 0.000000
      vertex 4.500000 0.000000 0.000000
    endloop
  endfacet
  facet normal 0.000000 0.000000 -1.000000
    outer loop
      vertex -3.640576 -2.645034 0.000000
      vertex 4.500000 0.000000 0.000000
      vertex 4.110955 -1.830315 0.000000
    endloop
  endfacet
  facet normal -0.000000 0.000000 -1.000000
    outer loop
      vertex -3.640576 -2.645034 0.000000
      vertex 4.110955 -1.830315 0.000000
      vertex 3.011088 -3.344152 0.000000
    endloop
  endfacet
  facet normal 0.000000 0.000000 -1.000000
    outer loop
      vertex -3.640576 -2.645034 0.000000
      vertex 3.011088 -3.344152 0.000000
      vertex 1.390576 -4.279754 0.000000
    endloop
  endfacet
  facet normal 0.000000 0.000000 -1.000000
    outer loop
      vertex -3.640576 -2.645034 0.000000
      vertex 1.390576 -4.279754 0.000000
      vertex -0.470378 -4.475349 0.000000
    endloop
  endfacet
  facet normal 0.000000 0.000000 -1.000000
    outer loop
      vertex -3.640576 -2.645034 0.000000
      vertex -0.470378 -4.475349 0.000000
      vertex -2.250000 -3.897114 0.000000
    endloop
  endfacet
  facet normal -1.000000 -0.000000 -0.000000
    outer loop
      vertex -4.401664 -0.935603 0.000000
      vertex -4.401664 -0.935603 15.000000
      vertex -4.401664 0.935603 0.000000
    endloop
  endfacet
  facet normal -1.000000 0.000000 0.000000
    outer loop
      vertex -4.401664 0.935603 0.000000
      vertex -4.401664 -0.935603 15.000000
      vertex -4.401664 0.935603 15.000000
    endloop
  endfacet
  facet normal -0.913545 -0.406737 -0.000000
    outer loop
      vertex -4.401664 -0.935603 0.000000
      vertex -3.640576 -2.645034 0.000000
      vertex -4.401664 -0.935603 15.000000
    endloop
  endfacet
  facet normal -0.913545 -0.406737 0.000000
    outer loop
      vertex -4.401664 -0.935603 15.000000
      vertex -3.640576 -2.645034 0.000000
      vertex -3.640576 -2.645034 15.000000
    endloop
  endfacet
  facet normal -0.669131 -0.743145 0.000000
    outer loop
      vertex -3.640576 -2.645034 15.000000
      vertex -3.640576 -2.645034 0.000000
      vertex -2.250000 -3.897114 0.000000
    endloop
  endfacet
  facet normal -0.669131 -0.743145 0.000000
    outer loop
      vertex -2.250000 -3.897114 15.000000
      vertex -3.640576 -2.645034 15.000000
      vertex -2.250000 -3.897114 0.000000
    endloop
  endfacet
  facet normal -0.309017 -0.951056 0.000000
    outer loop
      vertex -2.250000 -3.897114 15.000000
      vertex -2.250000 -3.897114 0.000000
      vertex -0.470378 -4.475349 0.000000
    endloop
  endfacet
  facet normal -0.309017 -0.951056 0.000000
    outer loop
      vertex -0.470378 -4.475349 15.000000
      vertex -2.250000 -3.897114 15.000000
      vertex -0.470378 -4.475349 0.000000
    endloop
  endfacet
  facet normal 0.104529 -0.994522 0.000000
    outer loop
      vertex -0.470378 -4.475349 15.000000
      vertex -0.470378 -4.475349 0.000000
      vertex 1.390576 -4.279754 0.000000
    endloop
  endfacet
  facet normal 0.104529 -0.994522 0.000000
    outer loop
      vertex 1.390576 -4.279754 15.000000
      vertex -0.470378 -4.475349 15.000000
      vertex 1.390576 -4.279754 0.000000
    endloop
  endfacet
  facet normal 0.500000 -0.866026 0.000000
    outer loop
      vertex 1.390576 -4.279754 15.000000
      vertex 1.390576 -4.279754 0.000000
      vertex 3.011088 -3.344152 0.000000
    endloop
  endfacet
  facet normal 0.500000 -0.866026 0.000000
    outer loop
      vertex 3.011088 -3.344152 15.000000
      vertex 1.390576 -4.279754 15.000000
      vertex 3.011088 -3.344152 0.000000
    endloop
  endfacet
  facet normal 0.809017 -0.587785 0.000000
    outer loop
      vertex 3.011088 -3.344152 15.000000
      vertex 3.011088 -3.344152 0.000000
      vertex 4.110955 -1.830315 0.000000
    endloop
  endfacet
  facet normal 0.809017 -0.587785 0.000000
    outer loop
      vertex 4.110955 -1.830315 15.000000
      vertex 3.011088 -3.344152 15.000000
      vertex 4.110955 -1.830315 0.000000
    endloop
  endfacet
  facet normal 0.978148 -0.207911 0.000000
    outer loop
      vertex 4.110955 -1.830315 15.000000
      vertex 4.110955 -1.830315 0.000000
      vertex 4.500000 0.000000 0.000000
    endloop
  endfacet
  facet normal 0.978148 -0.207911 0.000000
    outer loop
      vertex 4.500000 0.000000 15.000000
      vertex 4.110955 -1.830315 15.000000
      vertex 4.500000 0.000000 0.000000
    endloop
  endfacet
  facet normal 0.978148 0.207911 0.000000
    outer loop
      vertex 4.500000 0.000000 0.000000
      vertex 4.110955 1.830315 0.000000
      vertex 4.110955 1.830315 15.000000
    endloop
  endfacet
  facet normal 0.978148 0.207911 -0.000000
    outer loop
      vertex 4.500000 0.000000 15.000000
      vertex 4.500000 0.000000 0.000000
      vertex 4.110955 1.830315 15.000000
    endloop
  endfacet
  facet normal 0.809017 0.587785 0.000000
    outer loop
      vertex 4.110955 1.830315 0.000000
      vertex 3.011088 3.344152 0.000000
      vertex 3.011088 3.344152 15.000000
    endloop
  endfacet
  facet normal 0.809017 0.587785 -0.000000
    outer loop
      vertex 4.110955 1.830315 15.000000
      vertex 4.110955 1.830315 0.000000
      vertex 3.011088 3.344152 15.000000
    endloop
  endfacet
  facet normal 0.500000 0.866026 0.000000
    outer loop
      vertex 1.390576 4.279754 0.000000
      vertex 1.390576 4.279754 15.000000
      vertex 3.011088 3.344152 0.000000
    endloop
  endfacet
  facet normal 0.500000 0.866026 0.000000
    outer loop
      vertex 3.011088 3.344152 0.000000
      vertex 1.390576 4.279754 15.000000
      vertex 3.011088 3.344152 15.000000
    endloop
  endfacet
  facet normal 0.104529 0.994522 0.000000
    outer loop
      vertex -0.470378 4.475349 0.000000
      vertex -0.470378 4.475349 15.000000
      vertex 1.390576 4.279754 0.000000
    endloop
  endfacet
  facet normal 0.104529 0.994522 0.000000
    outer loop
      vertex 1.390576 4.279754 0.000000
      vertex -0.470378 4.475349 15.000000
      vertex 1.390576 4.279754 15.000000
    endloop
  endfacet
  facet normal -0.309017 0.951056 0.000000
    outer loop
      vertex -2.250000 3.897114 0.000000
      vertex -2.250000 3.897114 15.000000
      vertex -0.470378 4.475349 0.000000
    endloop
  endfacet
  facet normal -0.309017 0.951056 0.000000
    outer loop
      vertex -0.470378 4.475349 0.000000
      vertex -2.250000 3.897114 15.000000
      vertex -0.470378 4.475349 15.000000
    endloop
  endfacet
  facet normal -0.669131 0.743145 0.000000
    outer loop
      vertex -3.640576 2.645034 0.000000
      vertex -3.640576 2.645034 15.000000
      vertex -2.250000 3.897114 0.000000
    endloop
  endfacet
  facet normal -0.669131 0.743145 0.000000
    outer loop
      vertex -2.250000 3.897114 0.000000
      vertex -3.640576 2.645034 15.000000
      vertex -2.250000 3.897114 15.000000
    endloop
  endfacet
  facet normal -0.913545 0.406737 0.000000
    outer loop
      vertex -4.401664 0.935603 0.000000
      vertex -4.401664 0.935603 15.000000
      vertex -3.640576 2.645034 0.000000
    endloop
  endfacet
  facet normal -0.913545 0.406737 0.000000
    outer loop
      vertex -3.640576 2.645034 0.000000
      vertex -4.401664 0.935603 15.000000
      vertex -3.640576 2.645034 15.000000
    endloop
  endfacet
  facet normal 0.000000 -0.000000 1.000000
    outer loop
      vertex -4.401664 0.935603 15.000000
      vertex -4.401664 -0.935603 15.000000
      vertex -3.640576 -2.645034 15.000000
    endloop
  endfacet
  facet normal 0.000000 0.000000 1.000000
    outer loop
      vertex -0.470378 -4.475349 15.000000
      vertex -4.401664 0.935603 15.000000
      vertex -2.250000 -3.897114 15.000000
    endloop
  endfacet
  facet normal 0.000000 0.000000 1.000000
    outer loop
      vertex -2.250000 -3.897114 15.000000
      vertex -4.401664 0.935603 15.000000
      vertex -3.640576 -2.645034 15.000000
    endloop
  endfacet
  facet normal -0.000000 0.000000 1.000000
    outer loop
      vertex 1.390576 -4.279754 15.000000
      vertex -4.401664 0.935603 15.000000
      vertex -0.470378 -4.475349 15.000000
    endloop
  endfacet
  facet normal -0.000000 -0.000000 1.000000
    outer loop
      vertex -1.801938 -0.867767 15.000000
      vertex -4.401664 0.935603 15.000000
      vertex 1.390576 -4.279754 15.000000
    endloop
  endfacet
  facet normal 0.000000 0.000000 1.000000
    outer loop
      vertex -1.801938 0.867767 15.000000
      vertex -0.445042 1.949856 15.000000
      vertex -4.401664 0.935603 15.000000
    endloop
  endfacet
  facet normal 0.000000 -0.000000 1.000000
    outer loop
      vertex 1.246980 -1.563663 15.000000
      vertex -0.445042 -1.949856 15.000000
      vertex 3.011088 -3.344152 15.000000
    endloop
  endfacet
  facet normal 0.000000 0.000000 1.000000
    outer loop
      vertex 1.246980 1.563663 15.000000
      vertex 4.500000 0.000000 15.000000
      vertex 4.110955 1.830315 15.000000
    endloop
  endfacet
  facet normal 0.000000 -0.000000 1.000000
    outer loop
      vertex 1.390576 4.279754 15.000000
      vertex -4.401664 0.935603 15.000000
      vertex 3.011088 3.344152 15.000000
    endloop
  endfacet
  facet normal 0.000000 -0.000000 1.000000
    outer loop
      vertex -0.470378 4.475349 15.000000
      vertex -4.401664 0.935603 15.000000
      vertex 1.390576 4.279754 15.000000
    endloop
  endfacet
  facet normal 0.000000 -0.000000 1.000000
    outer loop
      vertex -2.250000 3.897114 15.000000
      vertex -4.401664 0.935603 15.000000
      vertex -0.470378 4.475349 15.000000
    endloop
  endfacet
  facet normal 0.000000 -0.000000 1.000000
    outer loop
      vertex -3.640576 2.645034 15.000000
      vertex -4.401664 0.935603 15.000000
      vertex -2.250000 3.897114 15.000000
    endloop
  endfacet
  facet normal -0.000000 -0.000000 1.000000
    outer loop
      vertex -0.445042 -1.949856 15.000000
      vertex -1.801938 -0.867767 15.000000
      vertex 1.390576 -4.279754 15.000000
    endloop
  endfacet
  facet normal 0.000000 -0.000000 1.000000
    outer loop
      vertex 2.000000 0.000000 15.000000
      vertex 1.246980 -1.563663 15.000000
      vertex 4.110955 -1.830315 15.000000
    endloop
  endfacet
  facet normal 0.000000 0.000000 1.000000
    outer loop
      vertex 1.246980 1.563663 15.000000
      vertex 2.000000 0.000000 15.000000
      vertex 4.500000 0.000000 15.000000
    endloop
  endfacet
  facet normal 0.000000 -0.000000 1.000000
    outer loop
      vertex 3.011088 3.344152 15.000000
      vertex -0.445042 1.949856 15.000000
      vertex 4.110955 1.830315 15.000000
    endloop
  endfacet
  facet normal 0.000000 0.000000 1.000000
    outer loop
      vertex 3.011088 3.344152 15.000000
      vertex -4.401664 0.935603 15.000000
      vertex -0.445042 1.949856 15.000000
    endloop
  endfacet
  facet normal 0.000000 0.000000 1.000000
    outer loop
      vertex -0.445042 1.949856 15.000000
      vertex 1.246980 1.563663 15.000000
      vertex 4.110955 1.830315 15.000000
    endloop
  endfacet
  facet normal 0.000000 0.000000 1.000000
    outer loop
      vertex 4.500000 0.000000 15.000000
      vertex 2.000000 0.000000 15.000000
      vertex 4.110955 -1.830315 15.000000
    endloop
  endfacet
  facet normal -0.000000 0.000000 1.000000
    outer loop
      vertex 4.110955 -1.830315 15.000000
      vertex 1.246980 -1.563663 15.000000
      vertex 3.011088 -3.344152 15.000000
    endloop
  endfacet
  facet normal -0.000000 0.000000 1.000000
    outer loop
      vertex 3.011088 -3.344152 15.000000
      vertex -0.445042 -1.949856 15.000000
      vertex 1.390576 -4.279754 15.000000
    endloop
  endfacet
  facet normal 0.000000 0.000000 1.000000
    outer loop
      vertex -1.801938 -0.867767 15.000000
      vertex -1.801938 0.867767 15.000000
      vertex -4.401664 0.935603 15.000000
    endloop
  endfacet
  facet normal -1.000000 -0.000000 -0.000000
    outer loop
      vertex -1.801938 -0.867767 15.000000
      vertex -1.801938 -0.867767 20.000000
      vertex -1.801938 0.867767 15.000000
    endloop
  endfacet
  facet normal -1.000000 0.000000 0.000000
    outer loop
      vertex -1.801938 0.867767 15.000000
      vertex -1.801938 -0.867767 20.000000
      vertex -1.801938 0.867767 20.000000
    endloop
  endfacet
  facet normal -0.623490 -0.781831 0.000000
    outer loop
      vertex -1.801938 -0.867767 20.000000
      vertex -1.801938 -0.867767 15.000000
      vertex -0.445042 -1.949856 15.000000
    endloop
  endfacet
  facet normal -0.623490 -0.781831 0.000000
    outer loop
      vertex -0.445042 -1.949856 20.000000
      vertex -1.801938 -0.867767 20.000000
      vertex -0.445042 -1.949856 15.000000
    endloop
  endfacet
  facet normal 0.222521 -0.974928 0.000000
    outer loop
      vertex -0.445042 -1.949856 20.000000
      vertex -0.445042 -1.949856 15.000000
      vertex 1.246980 -1.563663 15.000000
    endloop
  endfacet
  facet normal 0.222521 -0.974928 0.000000
    outer loop
      vertex 1.246980 -1.563663 20.000000
      vertex -0.445042 -1.949856 20.000000
      vertex 1.246980 -1.563663 15.000000
    endloop
  endfacet
  facet normal 0.900969 -0.433884 0.000000
    outer loop
      vertex 1.246980 -1.563663 20.000000
      vertex 1.246980 -1.563663 15.000000
      vertex 2.000000 0.000000 15.000000
    endloop
  endfacet
  facet normal 0.900969 -0.433884 0.000000
    outer loop
      vertex 2.000000 0.000000 20.000000
      vertex 1.246980 -1.563663 20.000000
      vertex 2.000000 0.000000 15.000000
    endloop
  endfacet
  facet normal 0.900969 0.433884 0.000000
    outer loop
      vertex 2.000000 0.000000 15.000000
      vertex 1.246980 1.563663 15.000000
      vertex 1.246980 1.563663 20.000000
    endloop
  endfacet
  facet normal 0.900969 0.433884 -0.000000
    outer loop
      vertex 2.000000 0.000000 20.000000
      vertex 2.000000 0.000000 15.000000
      vertex 1.246980 1.563663 20.000000
    endloop
  endfacet
  facet normal 0.222521 0.974928 0.000000
    outer loop
      vertex -0.445042 1.949856 15.000000
      vertex -0.445042 1.949856 20.000000
      vertex 1.246980 1.563663 15.000000
    endloop
  endfacet
  facet normal 0.222521 0.974928 0.000000
    outer loop
      vertex 1.246980 1.563663 15.000000
      vertex -0.445042 1.949856 20.000000
      vertex 1.246980 1.563663 20.000000
    endloop
  endfacet
  facet normal -0.623490 0.781831 0.000000
    outer loop
      vertex -1.801938 0.867767 15.000000
      vertex -1.801938 0.867767 20.000000
      vertex -0.445042 1.949856 15.000000
    endloop
  endfacet
  facet normal -0.623490 0.781831 0.000000
    outer loop
      vertex -0.445042 1.949856 15.000000
      vertex -1.801938 0.867767 20.000000
      vertex -0.445042 1.949856 20.000000
    endloop
  endfacet
  facet normal 0.000000 -0.000000 1.000000
    outer loop
      vertex -1.801938 0.867767 20.000000
      vertex -1.801938 -0.867767 20.000000
      vertex -0.445042 -1.949856 20.000000
    endloop
  endfacet
  facet normal -0.000000 0.000000 1.000000
    outer loop
      vertex 2.000000 0.000000 20.000000
      vertex -1.801938 0.867767 20.000000
      vertex 1.246980 -1.563663 20.000000
    endloop
  endfacet
  facet normal -0.000000 0.000000 1.000000
    outer loop
      vertex 1.246980 -1.563663 20.000000
      vertex -1.801938 0.867767 20.000000
      vertex -0.445042 -1.949856 20.000000
    endloop
  endfacet
  facet normal 0.000000 -0.000000 1.000000
    outer loop
      vertex 1.246980 1.563663 20.000000
      vertex -1.801938 0.867767 20.000000
      vertex 2.000000 0.000000 20.000000
    endloop
  endfacet
  facet normal 0.000000 -0.000000 1.000000
    outer loop
      vertex -0.445042 1.949856 20.000000
      vertex -1.801938 0.867767 20.000000
      vertex 1.246980 1.563663 20.000000
    endloop
  endfacet
endsolid OpenSCAD_Model
