solid OpenSCAD_Model
  facet normal -0.994522 0.104528 0.000000
    outer loop
      vertex -10.000000 0.000000 5.000000
      vertex -10.000000 0.000000 10.000000
      vertex -9.781476 2.079117 5.000000
    endloop
  endfacet
  facet normal -0.994522 0.104528 0.000000
    outer loop
      vertex -9.781476 2.079117 5.000000
      vertex -10.000000 0.000000 10.000000
      vertex -9.781476 2.079117 10.000000
    endloop
  endfacet
  facet normal -0.994522 -0.104528 -0.000000
    outer loop
      vertex -10.000000 0.000000 5.000000
      vertex -9.781476 -2.079117 5.000000
      vertex -10.000000 0.000000 10.000000
    endloop
  endfacet
  facet normal -0.994522 -0.104528 0.000000
    outer loop
      vertex -10.000000 0.000000 10.000000
      vertex -9.781476 -2.079117 5.000000
      vertex -9.781476 -2.079117 10.000000
    endloop
  endfacet
  facet normal -0.953009 -0.100165 -0.285903
    outer loop
      vertex -9.781476 -2.079117 5.000000
      vertex -10.000000 0.000000 5.000000
      vertex -8.314255 -1.767249 0.000000
    endloop
  endfacet
  facet normal -0.953009 -0.100165 -0.285903
    outer loop
      vertex -8.314255 -1.767249 0.000000
      vertex -10.000000 0.000000 5.000000
      vertex -8.500000 0.000000 0.000000
    endloop
  endfacet
  facet normal -0.953009 0.100165 -0.285903
    outer loop
      vertex -8.500000 0.000000 0.000000
      vertex -10.000000 0.000000 5.000000
      vertex -9.781476 2.079117 5.000000
    endloop
  endfacet
  facet normal -0.953009 0.100165 -0.285903
    outer loop
      vertex -8.500000 0.000000 0.000000
      vertex -9.781476 2.079117 5.000000
      vertex -8.314255 1.767249 0.000000
    endloop
  endfacet
  facet normal -0.911358 0.296118 -0.285903
    outer loop
      vertex -8.314255 1.767249 0.000000
      vertex -9.781476 2.079117 5.000000
      vertex -9.135455 4.067366 5.000000
    endloop
  endfacet
  facet normal -0.951057 0.309017 0.000000
    outer loop
      vertex -9.781476 2.079117 5.000000
      vertex -9.781476 2.079117 10.000000
      vertex -9.135455 4.067366 5.000000
    endloop
  endfacet
  facet normal -0.951057 0.309017 0.000000
    outer loop
      vertex -9.135455 4.067366 5.000000
      vertex -9.781476 2.079117 10.000000
      vertex -9.135455 4.067366 10.000000
    endloop
  endfacet
  facet normal -0.953009 0.100165 0.285903
    outer loop
      vertex -9.781476 2.079117 10.000000
      vertex -10.000000 0.000000 10.000000
      vertex -8.314255 1.767249 15.000000
    endloop
  endfacet
  facet normal -0.911358 0.296118 0.285903
    outer loop
      vertex -9.135455 4.067366 10.000000
      vertex -9.781476 2.079117 10.000000
      vertex -7.765136 3.457261 15.000000
    endloop
  endfacet
  facet normal -0.911358 0.296119 0.285903
    outer loop
      vertex -7.765136 3.457261 15.000000
      vertex -9.781476 2.079117 10.000000
      vertex -8.314255 1.767249 15.000000
    endloop
  endfacet
  facet normal -0.953009 0.100165 0.285903
    outer loop
      vertex -8.314255 1.767249 15.000000
      vertex -10.000000 0.000000 10.000000
      vertex -8.500000 0.000000 15.000000
    endloop
  endfacet
  facet normal -0.953009 -0.100165 0.285903
    outer loop
      vertex -8.500000 0.000000 15.000000
      vertex -10.000000 0.000000 10.000000
      vertex -9.781476 -2.079117 10.000000
    endloop
  endfacet
  facet normal -0.953009 -0.100165 0.285903
    outer loop
      vertex -8.500000 0.000000 15.000000
      vertex -9.781476 -2.079117 10.000000
      vertex -8.314255 -1.767249 15.000000
    endloop
  endfacet
  facet normal -0.911358 -0.296118 0.285903
    outer loop
      vertex -8.314255 -1.767249 15.000000
      vertex -9.781476 -2.079117 10.000000
      vertex -9.135455 -4.067366 10.000000
    endloop
  endfacet
  facet normal -0.951057 -0.309017 -0.000000
    outer loop
      vertex -9.781476 -2.079117 5.000000
      vertex -9.135455 -4.067366 5.000000
      vertex -9.781476 -2.079117 10.000000
    endloop
  endfacet
  facet normal -0.951057 -0.309017 0.000000
    outer loop
      vertex -9.781476 -2.079117 10.000000
      vertex -9.135455 -4.067366 5.000000
      vertex -9.135455 -4.067366 10.000000
    endloop
  endfacet
  facet normal -0.911358 -0.296118 -0.285903
    outer loop
      vertex -9.135455 -4.067366 5.000000
      vertex -9.781476 -2.079117 5.000000
      vertex -7.765136 -3.457261 0.000000
    endloop
  endfacet
  facet normal -0.911358 -0.296119 -0.285903
    outer loop
      vertex -7.765136 -3.457261 0.000000
      vertex -9.781476 -2.079117 5.000000
      vertex -8.314255 -1.767249 0.000000
    endloop
  endfacet
  facet normal -0.000000 0.000000 -1.000000
    outer loop
      vertex -8.500000 0.000000 0.000000
      vertex -8.314255 1.767249 0.000000
      vertex -8.314255 -1.767249 0.000000
    endloop
  endfacet
  facet normal 0.000000 -0.000000 -1.000000
    outer loop
      vertex -8.314255 -1.767249 0.000000
      vertex -8.314255 1.767249 0.000000
      vertex -7.765136 3.457261 0.000000
    endloop
  endfacet
  facet normal 0.000000 0.000000 -1.000000
    outer loop
      vertex -8.314255 -1.767249 0.000000
      vertex -7.765136 3.457261 0.000000
      vertex -6.876644 4.996175 0.000000
    endloop
  endfacet
  facet normal 0.000000 0.000000 -1.000000
    outer loop
      vertex -8.314255 -1.767249 0.000000
      vertex -6.876644 4.996175 0.000000
      vertex -5.687610 6.316731 0.000000
    endloop
  endfacet
  facet normal 0.000000 0.000000 -1.000000
    outer loop
      vertex -8.314255 -1.767249 0.000000
      vertex -5.687610 6.316731 0.000000
      vertex -4.250000 7.361216 0.000000
    endloop
  endfacet
  facet normal 0.000000 0.000000 -1.000000
    outer loop
      vertex -8.314255 -1.767249 0.000000
      vertex -4.250000 7.361216 0.000000
      vertex -2.626644 8.083980 0.000000
    endloop
  endfacet
  facet normal 0.000000 0.000000 -1.000000
    outer loop
      vertex -8.314255 -1.767249 0.000000
      vertex -2.626644 8.083980 0.000000
      vertex -0.888492 8.453436 0.000000
    endloop
  endfacet
  facet normal 0.000000 0.000000 -1.000000
    outer loop
      vertex -8.314255 -1.767249 0.000000
      vertex -0.888492 8.453436 0.000000
      vertex 0.888492 8.453436 0.000000
    endloop
  endfacet
  facet normal 0.000000 0.000000 -1.000000
    outer loop
      vertex -8.314255 -1.767249 0.000000
      vertex 0.888492 8.453436 0.000000
      vertex 2.626644 8.083980 0.000000
    endloop
  endfacet
  facet normal 0.000000 0.000000 -1.000000
    outer loop
      vertex -8.314255 -1.767249 0.000000
      vertex 2.626644 8.083980 0.000000
      vertex 4.250000 7.361216 0.000000
    endloop
  endfacet
  facet normal 0.000000 0.000000 -1.000000
    outer loop
      vertex -8.314255 -1.767249 0.000000
      vertex 4.250000 7.361216 0.000000
      vertex 5.687610 6.316731 0.000000
    endloop
  endfacet
  facet normal 0.000000 0.000000 -1.000000
    outer loop
      vertex -0.489546 2.144841 0.000000
      vertex 5.687610 6.316731 0.000000
      vertex 6.876644 4.996175 0.000000
    endloop
  endfacet
  facet normal -0.000000 0.000000 -1.000000
    outer loop
      vertex 2.200000 0.000000 0.000000
      vertex 8.314255 1.767249 0.000000
      vertex 8.500000 0.000000 0.000000
    endloop
  endfacet
  facet normal -0.000000 0.000000 -1.000000
    outer loop
      vertex 1.371678 -1.720029 0.000000
      vertex 8.500000 0.000000 0.000000
      vertex 8.314255 -1.767249 0.000000
    endloop
  endfacet
  facet normal -0.000000 0.000000 -1.000000
    outer loop
      vertex -0.489546 -2.144841 0.000000
      vertex 8.314255 -1.767249 0.000000
      vertex 7.765136 -3.457261 0.000000
    endloop
  endfacet
  facet normal 0.000000 0.000000 -1.000000
    outer loop
      vertex -8.314255 -1.767249 0.000000
      vertex 7.765136 -3.457261 0.000000
      vertex 6.876644 -4.996175 0.000000
    endloop
  endfacet
  facet normal 0.000000 0.000000 -1.000000
    outer loop
      vertex -8.314255 -1.767249 0.000000
      vertex 6.876644 -4.996175 0.000000
      vertex 5.687610 -6.316731 0.000000
    endloop
  endfacet
  facet normal 0.000000 0.000000 -1.000000
    outer loop
      vertex -8.314255 -1.767249 0.000000
      vertex 5.687610 -6.316731 0.000000
      vertex 4.250000 -7.361216 0.000000
    endloop
  endfacet
  facet normal 0.000000 0.000000 -1.000000
    outer loop
      vertex -8.314255 -1.767249 0.000000
      vertex 4.250000 -7.361216 0.000000
      vertex 2.626644 -8.083980 0.000000
    endloop
  endfacet
  facet normal 0.000000 0.000000 -1.000000
    outer loop
      vertex -8.314255 -1.767249 0.000000
      vertex 2.626644 -8.083980 0.000000
      vertex 0.888492 -8.453436 0.000000
    endloop
  endfacet
  facet normal 0.000000 0.000000 -1.000000
    outer loop
      vertex -8.314255 -1.767249 0.000000
      vertex 0.888492 -8.453436 0.000000
      vertex -0.888492 -8.453436 0.000000
    endloop
  endfacet
  facet normal 0.000000 0.000000 -1.000000
    outer loop
      vertex -8.314255 -1.767249 0.000000
      vertex -0.888492 -8.453436 0.000000
      vertex -2.626644 -8.083980 0.000000
    endloop
  endfacet
  facet normal 0.000000 0.000000 -1.000000
    outer loop
      vertex -8.314255 -1.767249 0.000000
      vertex -2.626644 -8.083980 0.000000
      vertex -4.250000 -7.361216 0.000000
    endloop
  endfacet
  facet normal 0.000000 0.000000 -1.000000
    outer loop
      vertex -8.314255 -1.767249 0.000000
      vertex -4.250000 -7.361216 0.000000
      vertex -5.687610 -6.316731 0.000000
    endloop
  endfacet
  facet normal 0.000000 0.000000 -1.000000
    outer loop
      vertex -8.314255 -1.767249 0.000000
      vertex -5.687610 -6.316731 0.000000
      vertex -6.876644 -4.996175 0.000000
    endloop
  endfacet
  facet normal 0.000000 0.000000 -1.000000
    outer loop
      vertex -8.314255 -1.767249 0.000000
      vertex -6.876644 -4.996175 0.000000
      vertex -7.765136 -3.457261 0.000000
    endloop
  endfacet
  facet normal 0.000000 0.000000 -1.000000
    outer loop
      vertex -1.982132 -0.954544 0.000000
      vertex -8.314255 -1.767249 0.000000
      vertex -1.982132 0.954544 0.000000
    endloop
  endfacet
  facet normal 0.000000 0.000000 -1.000000
    outer loop
      vertex -0.489546 -2.144841 0.000000
      vertex -8.314255 -1.767249 0.000000
      vertex -1.982132 -0.954544 0.000000
    endloop
  endfacet
  facet normal 0.000000 0.000000 -1.000000
    outer loop
      vertex 2.200000 0.000000 0.000000
      vertex 8.500000 0.000000 0.000000
      vertex 1.371678 -1.720029 0.000000
    endloop
  endfacet
  facet normal 0.000000 0.000000 -1.000000
    outer loop
      vertex -8.314255 -1.767249 0.000000
      vertex -0.489546 -2.144841 0.000000
      vertex 7.765136 -3.457261 0.000000
    endloop
  endfacet
  facet normal -0.000000 0.000000 -1.000000
    outer loop
      vertex 1.371678 1.720029 0.000000
      vertex 8.314255 1.767249 0.000000
      vertex 2.200000 0.000000 0.000000
    endloop
  endfacet
  facet normal 0.000000 0.000000 -1.000000
    outer loop
      vertex 1.371678 -1.720029 0.000000
      vertex 8.314255 -1.767249 0.000000
      vertex -0.489546 -2.144841 0.000000
    endloop
  endfacet
  facet normal 0.000000 0.000000 -1.000000
    outer loop
      vertex -8.314255 -1.767249 0.000000
      vertex 5.687610 6.316731 0.000000
      vertex -0.489546 2.144841 0.000000
    endloop
  endfacet
  facet normal 0.000000 0.000000 -1.000000
    outer loop
      vertex 1.371678 1.720029 0.000000
      vertex 7.765136 3.457261 0.000000
      vertex 8.314255 1.767249 0.000000
    endloop
  endfacet
  facet normal 0.000000 -0.000000 -1.000000
    outer loop
      vertex -1.982132 0.954544 0.000000
      vertex -8.314255 -1.767249 0.000000
      vertex -0.489546 2.144841 0.000000
    endloop
  endfacet
  facet normal 0.000000 0.000000 -1.000000
    outer loop
      vertex -0.489546 2.144841 0.000000
      vertex 6.876644 4.996175 0.000000
      vertex 7.765136 3.457261 0.000000
    endloop
  endfacet
  facet normal -0.000000 0.000000 -1.000000
    outer loop
      vertex -0.489546 2.144841 0.000000
      vertex 7.765136 3.457261 0.000000
      vertex 1.371678 1.720029 0.000000
    endloop
  endfacet
  facet normal -0.911358 0.296119 -0.285903
    outer loop
      vertex -8.314255 1.767249 0.000000
      vertex -9.135455 4.067366 5.000000
      vertex -7.765136 3.457261 0.000000
    endloop
  endfacet
  facet normal -0.829876 0.479129 -0.285903
    outer loop
      vertex -7.765136 3.457261 0.000000
      vertex -9.135455 4.067366 5.000000
      vertex -8.090170 5.877853 5.000000
    endloop
  endfacet
  facet normal -0.866025 0.500000 0.000000
    outer loop
      vertex -9.135455 4.067366 5.000000
      vertex -9.135455 4.067366 10.000000
      vertex -8.090170 5.877853 5.000000
    endloop
  endfacet
  facet normal -0.866025 0.500000 0.000000
    outer loop
      vertex -8.090170 5.877853 5.000000
      vertex -9.135455 4.067366 10.000000
      vertex -8.090170 5.877853 10.000000
    endloop
  endfacet
  facet normal -0.829876 0.479129 0.285903
    outer loop
      vertex -8.090170 5.877853 10.000000
      vertex -9.135455 4.067366 10.000000
      vertex -6.876644 4.996175 15.000000
    endloop
  endfacet
  facet normal -0.829876 0.479129 0.285903
    outer loop
      vertex -6.876644 4.996175 15.000000
      vertex -9.135455 4.067366 10.000000
      vertex -7.765136 3.457261 15.000000
    endloop
  endfacet
  facet normal 0.000000 0.000000 1.000000
    outer loop
      vertex -8.314255 1.767249 15.000000
      vertex -8.500000 0.000000 15.000000
      vertex -8.314255 -1.767249 15.000000
    endloop
  endfacet
  facet normal 0.000000 0.000000 1.000000
    outer loop
      vertex -6.876644 -4.996175 15.000000
      vertex -8.314255 1.767249 15.000000
      vertex -7.765136 -3.457261 15.000000
    endloop
  endfacet
  facet normal 0.000000 0.000000 1.000000
    outer loop
      vertex -7.765136 -3.457261 15.000000
      vertex -8.314255 1.767249 15.000000
      vertex -8.314255 -1.767249 15.000000
    endloop
  endfacet
  facet normal 0.000000 0.000000 1.000000
    outer loop
      vertex -5.687610 -6.316731 15.000000
      vertex -8.314255 1.767249 15.000000
      vertex -6.876644 -4.996175 15.000000
    endloop
  endfacet
  facet normal 0.000000 0.000000 1.000000
    outer loop
      vertex -4.250000 -7.361216 15.000000
      vertex -8.314255 1.767249 15.000000
      vertex -5.687610 -6.316731 15.000000
    endloop
  endfacet
  facet normal -0.000000 -0.000000 1.000000
    outer loop
      vertex -5.856298 -2.820244 15.000000
      vertex -8.314255 1.767249 15.000000
      vertex -4.250000 -7.361216 15.000000
    endloop
  endfacet
  facet normal 0.000000 0.000000 1.000000
    outer loop
      vertex 6.211223 1.915909 15.000000
      vertex 8.500000 0.000000 15.000000
      vertex 8.314255 1.767249 15.000000
    endloop
  endfacet
  facet normal 0.000000 0.000000 1.000000
    outer loop
      vertex 6.211223 1.915909 15.000000
      vertex 6.500000 0.000000 15.000000
      vertex 8.500000 0.000000 15.000000
    endloop
  endfacet
  facet normal 0.000000 0.000000 1.000000
    outer loop
      vertex 2.374717 6.050679 15.000000
      vertex 4.052684 5.081905 15.000000
      vertex 5.687610 6.316731 15.000000
    endloop
  endfacet
  facet normal 0.000000 0.000000 1.000000
    outer loop
      vertex 0.485746 6.481825 15.000000
      vertex 2.374717 6.050679 15.000000
      vertex 4.250000 7.361216 15.000000
    endloop
  endfacet
  facet normal 0.000000 -0.000000 1.000000
    outer loop
      vertex -2.626644 8.083980 15.000000
      vertex -8.314255 1.767249 15.000000
      vertex -0.888492 8.453436 15.000000
    endloop
  endfacet
  facet normal 0.000000 -0.000000 1.000000
    outer loop
      vertex -4.250000 7.361216 15.000000
      vertex -8.314255 1.767249 15.000000
      vertex -2.626644 8.083980 15.000000
    endloop
  endfacet
  facet normal 0.000000 -0.000000 1.000000
    outer loop
      vertex -5.687610 6.316731 15.000000
      vertex -8.314255 1.767249 15.000000
      vertex -4.250000 7.361216 15.000000
    endloop
  endfacet
  facet normal 0.000000 -0.000000 1.000000
    outer loop
      vertex -6.876644 4.996175 15.000000
      vertex -8.314255 1.767249 15.000000
      vertex -5.687610 6.316731 15.000000
    endloop
  endfacet
  facet normal 0.000000 -0.000000 1.000000
    outer loop
      vertex -7.765136 3.457261 15.000000
      vertex -8.314255 1.767249 15.000000
      vertex -6.876644 4.996175 15.000000
    endloop
  endfacet
  facet normal 0.000000 -0.000000 1.000000
    outer loop
      vertex 4.052684 -5.081905 15.000000
      vertex 2.374717 -6.050679 15.000000
      vertex 4.250000 -7.361216 15.000000
    endloop
  endfacet
  facet normal 0.000000 0.000000 1.000000
    outer loop
      vertex 4.052684 -5.081905 15.000000
      vertex 4.250000 -7.361216 15.000000
      vertex 5.687610 -6.316731 15.000000
    endloop
  endfacet
  facet normal 0.000000 0.000000 1.000000
    outer loop
      vertex 4.052684 5.081905 15.000000
      vertex 5.370552 3.661580 15.000000
      vertex 6.876644 4.996175 15.000000
    endloop
  endfacet
  facet normal 0.000000 0.000000 1.000000
    outer loop
      vertex -1.446386 6.337031 15.000000
      vertex 0.485746 6.481825 15.000000
      vertex 2.626644 8.083980 15.000000
    endloop
  endfacet
  facet normal 0.000000 0.000000 1.000000
    outer loop
      vertex -0.888492 8.453436 15.000000
      vertex -8.314255 1.767249 15.000000
      vertex -4.764837 4.421123 15.000000
    endloop
  endfacet
  facet normal 0.000000 -0.000000 1.000000
    outer loop
      vertex -0.888492 8.453436 15.000000
      vertex -3.250000 5.629165 15.000000
      vertex 0.888492 8.453436 15.000000
    endloop
  endfacet
  facet normal 0.000000 0.000000 1.000000
    outer loop
      vertex -0.888492 8.453436 15.000000
      vertex -4.764837 4.421123 15.000000
      vertex -3.250000 5.629165 15.000000
    endloop
  endfacet
  facet normal 0.000000 -0.000000 1.000000
    outer loop
      vertex 0.888492 8.453436 15.000000
      vertex -1.446386 6.337031 15.000000
      vertex 2.626644 8.083980 15.000000
    endloop
  endfacet
  facet normal 0.000000 0.000000 1.000000
    outer loop
      vertex -3.250000 5.629165 15.000000
      vertex -1.446386 6.337031 15.000000
      vertex 0.888492 8.453436 15.000000
    endloop
  endfacet
  facet normal 0.000000 -0.000000 1.000000
    outer loop
      vertex 2.626644 8.083980 15.000000
      vertex 0.485746 6.481825 15.000000
      vertex 4.250000 7.361216 15.000000
    endloop
  endfacet
  facet normal 0.000000 -0.000000 1.000000
    outer loop
      vertex 4.250000 7.361216 15.000000
      vertex 2.374717 6.050679 15.000000
      vertex 5.687610 6.316731 15.000000
    endloop
  endfacet
  facet normal 0.000000 -0.000000 1.000000
    outer loop
      vertex 5.687610 6.316731 15.000000
      vertex 4.052684 5.081905 15.000000
      vertex 6.876644 4.996175 15.000000
    endloop
  endfacet
  facet normal 0.000000 -0.000000 1.000000
    outer loop
      vertex 6.876644 4.996175 15.000000
      vertex 5.370552 3.661580 15.000000
      vertex 7.765136 3.457261 15.000000
    endloop
  endfacet
  facet normal 0.000000 -0.000000 1.000000
    outer loop
      vertex 6.211223 -1.915909 15.000000
      vertex 5.370552 -3.661580 15.000000
      vertex 7.765136 -3.457261 15.000000
    endloop
  endfacet
  facet normal 0.000000 -0.000000 1.000000
    outer loop
      vertex 7.765136 3.457261 15.000000
      vertex 6.211223 1.915909 15.000000
      vertex 8.314255 1.767249 15.000000
    endloop
  endfacet
  facet normal -0.000000 0.000000 1.000000
    outer loop
      vertex -5.856298 2.820244 15.000000
      vertex -4.764837 4.421123 15.000000
      vertex -8.314255 1.767249 15.000000
    endloop
  endfacet
  facet normal 0.000000 0.000000 1.000000
    outer loop
      vertex 8.500000 0.000000 15.000000
      vertex 6.500000 0.000000 15.000000
      vertex 8.314255 -1.767249 15.000000
    endloop
  endfacet
  facet normal 0.000000 0.000000 1.000000
    outer loop
      vertex 8.314255 -1.767249 15.000000
      vertex 6.211223 -1.915909 15.000000
      vertex 7.765136 -3.457261 15.000000
    endloop
  endfacet
  facet normal 0.000000 0.000000 1.000000
    outer loop
      vertex 7.765136 -3.457261 15.000000
      vertex 5.370552 -3.661580 15.000000
      vertex 6.876644 -4.996175 15.000000
    endloop
  endfacet
  facet normal 0.000000 0.000000 1.000000
    outer loop
      vertex 6.876644 -4.996175 15.000000
      vertex 4.052684 -5.081905 15.000000
      vertex 5.687610 -6.316731 15.000000
    endloop
  endfacet
  facet normal 0.000000 0.000000 1.000000
    outer loop
      vertex 5.370552 3.661580 15.000000
      vertex 6.211223 1.915909 15.000000
      vertex 7.765136 3.457261 15.000000
    endloop
  endfacet
  facet normal -0.000000 0.000000 1.000000
    outer loop
      vertex 4.250000 -7.361216 15.000000
      vertex 2.374717 -6.050679 15.000000
      vertex 2.626644 -8.083980 15.000000
    endloop
  endfacet
  facet normal -0.000000 0.000000 1.000000
    outer loop
      vertex 2.626644 -8.083980 15.000000
      vertex 0.485746 -6.481825 15.000000
      vertex 0.888492 -8.453436 15.000000
    endloop
  endfacet
  facet normal 0.000000 -0.000000 1.000000
    outer loop
      vertex 6.500000 0.000000 15.000000
      vertex 6.211223 -1.915909 15.000000
      vertex 8.314255 -1.767249 15.000000
    endloop
  endfacet
  facet normal -0.000000 0.000000 1.000000
    outer loop
      vertex 0.888492 -8.453436 15.000000
      vertex -1.446386 -6.337031 15.000000
      vertex -0.888492 -8.453436 15.000000
    endloop
  endfacet
  facet normal 0.000000 0.000000 1.000000
    outer loop
      vertex -0.888492 -8.453436 15.000000
      vertex -3.250000 -5.629165 15.000000
      vertex -2.626644 -8.083980 15.000000
    endloop
  endfacet
  facet normal 0.000000 0.000000 1.000000
    outer loop
      vertex -2.626644 -8.083980 15.000000
      vertex -4.764837 -4.421123 15.000000
      vertex -4.250000 -7.361216 15.000000
    endloop
  endfacet
  facet normal -0.000000 -0.000000 1.000000
    outer loop
      vertex -1.446386 -6.337031 15.000000
      vertex -3.250000 -5.629165 15.000000
      vertex -0.888492 -8.453436 15.000000
    endloop
  endfacet
  facet normal -0.000000 -0.000000 1.000000
    outer loop
      vertex -4.764837 -4.421123 15.000000
      vertex -5.856298 -2.820244 15.000000
      vertex -4.250000 -7.361216 15.000000
    endloop
  endfacet
  facet normal 0.000000 -0.000000 1.000000
    outer loop
      vertex 2.374717 -6.050679 15.000000
      vertex 0.485746 -6.481825 15.000000
      vertex 2.626644 -8.083980 15.000000
    endloop
  endfacet
  facet normal 0.000000 0.000000 1.000000
    outer loop
      vertex -5.856298 -2.820244 15.000000
      vertex -6.427400 -0.968775 15.000000
      vertex -8.314255 1.767249 15.000000
    endloop
  endfacet
  facet normal -0.000000 -0.000000 1.000000
    outer loop
      vertex 0.485746 -6.481825 15.000000
      vertex -1.446386 -6.337031 15.000000
      vertex 0.888492 -8.453436 15.000000
    endloop
  endfacet
  facet normal -0.000000 -0.000000 1.000000
    outer loop
      vertex -3.250000 -5.629165 15.000000
      vertex -4.764837 -4.421123 15.000000
      vertex -2.626644 -8.083980 15.000000
    endloop
  endfacet
  facet normal 0.000000 0.000000 1.000000
    outer loop
      vertex -6.427400 -0.968775 15.000000
      vertex -6.427400 0.968775 15.000000
      vertex -8.314255 1.767249 15.000000
    endloop
  endfacet
  facet normal 0.000000 -0.000000 1.000000
    outer loop
      vertex 5.370552 -3.661580 15.000000
      vertex 4.052684 -5.081905 15.000000
      vertex 6.876644 -4.996175 15.000000
    endloop
  endfacet
  facet normal 0.000000 0.000000 1.000000
    outer loop
      vertex -6.427400 0.968775 15.000000
      vertex -5.856298 2.820244 15.000000
      vertex -8.314255 1.767249 15.000000
    endloop
  endfacet
  facet normal -0.911358 -0.296119 0.285903
    outer loop
      vertex -8.314255 -1.767249 15.000000
      vertex -9.135455 -4.067366 10.000000
      vertex -7.765136 -3.457261 15.000000
    endloop
  endfacet
  facet normal -0.829876 -0.479129 0.285903
    outer loop
      vertex -7.765136 -3.457261 15.000000
      vertex -9.135455 -4.067366 10.000000
      vertex -8.090170 -5.877853 10.000000
    endloop
  endfacet
  facet normal -0.866025 -0.500000 -0.000000
    outer loop
      vertex -9.135455 -4.067366 5.000000
      vertex -8.090170 -5.877853 5.000000
      vertex -9.135455 -4.067366 10.000000
    endloop
  endfacet
  facet normal -0.866025 -0.500000 0.000000
    outer loop
      vertex -9.135455 -4.067366 10.000000
      vertex -8.090170 -5.877853 5.000000
      vertex -8.090170 -5.877853 10.000000
    endloop
  endfacet
  facet normal -0.829876 -0.479129 -0.285903
    outer loop
      vertex -8.090170 -5.877853 5.000000
      vertex -9.135455 -4.067366 5.000000
      vertex -6.876644 -4.996175 0.000000
    endloop
  endfacet
  facet normal -0.829876 -0.479129 -0.285903
    outer loop
      vertex -6.876644 -4.996175 0.000000
      vertex -9.135455 -4.067366 5.000000
      vertex -7.765136 -3.457261 0.000000
    endloop
  endfacet
  facet normal -0.712125 -0.641200 -0.285903
    outer loop
      vertex -5.687610 -6.316731 0.000000
      vertex -8.090170 -5.877853 5.000000
      vertex -6.876644 -4.996175 0.000000
    endloop
  endfacet
  facet normal -0.712125 -0.641200 -0.285903
    outer loop
      vertex -6.691306 -7.431448 5.000000
      vertex -8.090170 -5.877853 5.000000
      vertex -5.687610 -6.316731 0.000000
    endloop
  endfacet
  facet normal -0.563250 -0.775247 -0.285903
    outer loop
      vertex -4.250000 -7.361216 0.000000
      vertex -6.691306 -7.431448 5.000000
      vertex -5.687610 -6.316731 0.000000
    endloop
  endfacet
  facet normal -0.563250 -0.775247 -0.285903
    outer loop
      vertex -5.000000 -8.660254 5.000000
      vertex -6.691306 -7.431448 5.000000
      vertex -4.250000 -7.361216 0.000000
    endloop
  endfacet
  facet normal -0.389759 -0.875413 -0.285903
    outer loop
      vertex -2.626644 -8.083980 0.000000
      vertex -5.000000 -8.660254 5.000000
      vertex -4.250000 -7.361216 0.000000
    endloop
  endfacet
  facet normal -0.389759 -0.875413 -0.285903
    outer loop
      vertex -3.090170 -9.510565 5.000000
      vertex -5.000000 -8.660254 5.000000
      vertex -2.626644 -8.083980 0.000000
    endloop
  endfacet
  facet normal -0.199233 -0.937318 -0.285903
    outer loop
      vertex -0.888492 -8.453436 0.000000
      vertex -3.090170 -9.510565 5.000000
      vertex -2.626644 -8.083980 0.000000
    endloop
  endfacet
  facet normal -0.199233 -0.937318 -0.285903
    outer loop
      vertex -1.045285 -9.945219 5.000000
      vertex -3.090170 -9.510565 5.000000
      vertex -0.888492 -8.453436 0.000000
    endloop
  endfacet
  facet normal 0.000000 -0.958259 -0.285903
    outer loop
      vertex 1.045285 -9.945219 5.000000
      vertex -1.045285 -9.945219 5.000000
      vertex -0.888492 -8.453436 0.000000
    endloop
  endfacet
  facet normal 0.000000 -0.958259 -0.285903
    outer loop
      vertex 0.888492 -8.453436 0.000000
      vertex 1.045285 -9.945219 5.000000
      vertex -0.888492 -8.453436 0.000000
    endloop
  endfacet
  facet normal 0.199233 -0.937318 -0.285903
    outer loop
      vertex 1.045285 -9.945219 5.000000
      vertex 0.888492 -8.453436 0.000000
      vertex 2.626644 -8.083980 0.000000
    endloop
  endfacet
  facet normal 0.199233 -0.937318 -0.285903
    outer loop
      vertex 3.090170 -9.510565 5.000000
      vertex 1.045285 -9.945219 5.000000
      vertex 2.626644 -8.083980 0.000000
    endloop
  endfacet
  facet normal 0.389759 -0.875413 -0.285903
    outer loop
      vertex 3.090170 -9.510565 5.000000
      vertex 2.626644 -8.083980 0.000000
      vertex 4.250000 -7.361216 0.000000
    endloop
  endfacet
  facet normal 0.389759 -0.875413 -0.285903
    outer loop
      vertex 5.000000 -8.660254 5.000000
      vertex 3.090170 -9.510565 5.000000
      vertex 4.250000 -7.361216 0.000000
    endloop
  endfacet
  facet normal 0.563250 -0.775247 -0.285903
    outer loop
      vertex 5.000000 -8.660254 5.000000
      vertex 4.250000 -7.361216 0.000000
      vertex 5.687610 -6.316731 0.000000
    endloop
  endfacet
  facet normal 0.563250 -0.775247 -0.285903
    outer loop
      vertex 6.691306 -7.431448 5.000000
      vertex 5.000000 -8.660254 5.000000
      vertex 5.687610 -6.316731 0.000000
    endloop
  endfacet
  facet normal 0.712125 -0.641200 -0.285903
    outer loop
      vertex 6.691306 -7.431448 5.000000
      vertex 5.687610 -6.316731 0.000000
      vertex 6.876644 -4.996175 0.000000
    endloop
  endfacet
  facet normal 0.712125 -0.641200 -0.285903
    outer loop
      vertex 8.090170 -5.877853 5.000000
      vertex 6.691306 -7.431448 5.000000
      vertex 6.876644 -4.996175 0.000000
    endloop
  endfacet
  facet normal 0.829876 -0.479129 -0.285903
    outer loop
      vertex 8.090170 -5.877853 5.000000
      vertex 6.876644 -4.996175 0.000000
      vertex 7.765136 -3.457261 0.000000
    endloop
  endfacet
  facet normal 0.829876 -0.479129 -0.285903
    outer loop
      vertex 8.090170 -5.877853 5.000000
      vertex 7.765136 -3.457261 0.000000
      vertex 9.135455 -4.067366 5.000000
    endloop
  endfacet
  facet normal 0.911358 -0.296119 -0.285903
    outer loop
      vertex 9.135455 -4.067366 5.000000
      vertex 7.765136 -3.457261 0.000000
      vertex 8.314255 -1.767249 0.000000
    endloop
  endfacet
  facet normal 0.911358 -0.296118 -0.285903
    outer loop
      vertex 9.135455 -4.067366 5.000000
      vertex 8.314255 -1.767249 0.000000
      vertex 9.781476 -2.079117 5.000000
    endloop
  endfacet
  facet normal 0.953009 -0.100165 -0.285903
    outer loop
      vertex 9.781476 -2.079117 5.000000
      vertex 8.314255 -1.767249 0.000000
      vertex 8.500000 0.000000 0.000000
    endloop
  endfacet
  facet normal 0.953009 -0.100165 -0.285903
    outer loop
      vertex 9.781476 -2.079117 5.000000
      vertex 8.500000 0.000000 0.000000
      vertex 10.000000 0.000000 5.000000
    endloop
  endfacet
  facet normal 0.953009 0.100165 -0.285903
    outer loop
      vertex 8.500000 0.000000 0.000000
      vertex 8.314255 1.767249 0.000000
      vertex 10.000000 0.000000 5.000000
    endloop
  endfacet
  facet normal 0.953009 0.100165 -0.285903
    outer loop
      vertex 10.000000 0.000000 5.000000
      vertex 8.314255 1.767249 0.000000
      vertex 9.781476 2.079117 5.000000
    endloop
  endfacet
  facet normal 0.911358 0.296119 -0.285903
    outer loop
      vertex 8.314255 1.767249 0.000000
      vertex 7.765136 3.457261 0.000000
      vertex 9.781476 2.079117 5.000000
    endloop
  endfacet
  facet normal 0.911358 0.296118 -0.285903
    outer loop
      vertex 9.781476 2.079117 5.000000
      vertex 7.765136 3.457261 0.000000
      vertex 9.135455 4.067366 5.000000
    endloop
  endfacet
  facet normal 0.829876 0.479129 -0.285903
    outer loop
      vertex 7.765136 3.457261 0.000000
      vertex 6.876644 4.996175 0.000000
      vertex 9.135455 4.067366 5.000000
    endloop
  endfacet
  facet normal 0.829876 0.479129 -0.285903
    outer loop
      vertex 9.135455 4.067366 5.000000
      vertex 6.876644 4.996175 0.000000
      vertex 8.090170 5.877853 5.000000
    endloop
  endfacet
  facet normal 0.712125 0.641200 -0.285903
    outer loop
      vertex 6.876644 4.996175 0.000000
      vertex 5.687610 6.316731 0.000000
      vertex 8.090170 5.877853 5.000000
    endloop
  endfacet
  facet normal 0.712125 0.641200 -0.285903
    outer loop
      vertex 8.090170 5.877853 5.000000
      vertex 5.687610 6.316731 0.000000
      vertex 6.691306 7.431448 5.000000
    endloop
  endfacet
  facet normal 0.563250 0.775247 -0.285903
    outer loop
      vertex 5.687610 6.316731 0.000000
      vertex 4.250000 7.361216 0.000000
      vertex 6.691306 7.431448 5.000000
    endloop
  endfacet
  facet normal 0.563250 0.775247 -0.285903
    outer loop
      vertex 6.691306 7.431448 5.000000
      vertex 4.250000 7.361216 0.000000
      vertex 5.000000 8.660254 5.000000
    endloop
  endfacet
  facet normal 0.389759 0.875413 -0.285903
    outer loop
      vertex 4.250000 7.361216 0.000000
      vertex 2.626644 8.083980 0.000000
      vertex 5.000000 8.660254 5.000000
    endloop
  endfacet
  facet normal 0.389759 0.875413 -0.285903
    outer loop
      vertex 5.000000 8.660254 5.000000
      vertex 2.626644 8.083980 0.000000
      vertex 3.090170 9.510565 5.000000
    endloop
  endfacet
  facet normal 0.199233 0.937318 -0.285903
    outer loop
      vertex 2.626644 8.083980 0.000000
      vertex 0.888492 8.453436 0.000000
      vertex 3.090170 9.510565 5.000000
    endloop
  endfacet
  facet normal 0.199233 0.937318 -0.285903
    outer loop
      vertex 3.090170 9.510565 5.000000
      vertex 0.888492 8.453436 0.000000
      vertex 1.045285 9.945219 5.000000
    endloop
  endfacet
  facet normal 0.000000 0.958259 -0.285903
    outer loop
      vertex -1.045285 9.945219 5.000000
      vertex 1.045285 9.945219 5.000000
      vertex -0.888492 8.453436 0.000000
    endloop
  endfacet
  facet normal 0.000000 0.958259 -0.285903
    outer loop
      vertex -0.888492 8.453436 0.000000
      vertex 1.045285 9.945219 5.000000
      vertex 0.888492 8.453436 0.000000
    endloop
  endfacet
  facet normal -0.199233 0.937318 -0.285903
    outer loop
      vertex -0.888492 8.453436 0.000000
      vertex -2.626644 8.083980 0.000000
      vertex -1.045285 9.945219 5.000000
    endloop
  endfacet
  facet normal -0.199233 0.937318 -0.285903
    outer loop
      vertex -2.626644 8.083980 0.000000
      vertex -3.090170 9.510565 5.000000
      vertex -1.045285 9.945219 5.000000
    endloop
  endfacet
  facet normal -0.389759 0.875413 -0.285903
    outer loop
      vertex -2.626644 8.083980 0.000000
      vertex -4.250000 7.361216 0.000000
      vertex -3.090170 9.510565 5.000000
    endloop
  endfacet
  facet normal -0.389759 0.875413 -0.285903
    outer loop
      vertex -4.250000 7.361216 0.000000
      vertex -5.000000 8.660254 5.000000
      vertex -3.090170 9.510565 5.000000
    endloop
  endfacet
  facet normal -0.563250 0.775247 -0.285903
    outer loop
      vertex -4.250000 7.361216 0.000000
      vertex -5.687610 6.316731 0.000000
      vertex -5.000000 8.660254 5.000000
    endloop
  endfacet
  facet normal -0.563250 0.775247 -0.285903
    outer loop
      vertex -5.687610 6.316731 0.000000
      vertex -6.691306 7.431448 5.000000
      vertex -5.000000 8.660254 5.000000
    endloop
  endfacet
  facet normal -0.712125 0.641200 -0.285903
    outer loop
      vertex -5.687610 6.316731 0.000000
      vertex -6.876644 4.996175 0.000000
      vertex -6.691306 7.431448 5.000000
    endloop
  endfacet
  facet normal -0.712125 0.641200 -0.285903
    outer loop
      vertex -6.876644 4.996175 0.000000
      vertex -8.090170 5.877853 5.000000
      vertex -6.691306 7.431448 5.000000
    endloop
  endfacet
  facet normal -0.829876 0.479129 -0.285903
    outer loop
      vertex -7.765136 3.457261 0.000000
      vertex -8.090170 5.877853 5.000000
      vertex -6.876644 4.996175 0.000000
    endloop
  endfacet
  facet normal 1.000000 0.000000 0.000000
    outer loop
      vertex -1.982132 0.954544 0.000000
      vertex -1.982132 0.954544 7.500000
      vertex -1.982132 -0.954544 7.500000
    endloop
  endfacet
  facet normal 1.000000 0.000000 0.000000
    outer loop
      vertex -1.982132 -0.954544 0.000000
      vertex -1.982132 0.954544 0.000000
      vertex -1.982132 -0.954544 7.500000
    endloop
  endfacet
  facet normal 0.623490 -0.781832 0.000000
    outer loop
      vertex -0.489546 2.144841 0.000000
      vertex -0.489546 2.144841 7.500000
      vertex -1.982132 0.954544 7.500000
    endloop
  endfacet
  facet normal 0.623490 -0.781832 0.000000
    outer loop
      vertex -1.982132 0.954544 0.000000
      vertex -0.489546 2.144841 0.000000
      vertex -1.982132 0.954544 7.500000
    endloop
  endfacet
  facet normal -0.222521 -0.974928 -0.000000
    outer loop
      vertex 1.371678 1.720029 0.000000
      vertex 1.371678 1.720029 7.500000
      vertex -0.489546 2.144841 7.500000
    endloop
  endfacet
  facet normal -0.222521 -0.974928 -0.000000
    outer loop
      vertex -0.489546 2.144841 0.000000
      vertex 1.371678 1.720029 0.000000
      vertex -0.489546 2.144841 7.500000
    endloop
  endfacet
  facet normal -0.900969 -0.433884 0.000000
    outer loop
      vertex 2.200000 0.000000 7.500000
      vertex 1.371678 1.720029 7.500000
      vertex 2.200000 0.000000 0.000000
    endloop
  endfacet
  facet normal -0.900969 -0.433884 0.000000
    outer loop
      vertex 2.200000 0.000000 0.000000
      vertex 1.371678 1.720029 7.500000
      vertex 1.371678 1.720029 0.000000
    endloop
  endfacet
  facet normal -0.900969 0.433884 0.000000
    outer loop
      vertex 2.200000 0.000000 7.500000
      vertex 2.200000 0.000000 0.000000
      vertex 1.371678 -1.720029 7.500000
    endloop
  endfacet
  facet normal -0.900969 0.433884 0.000000
    outer loop
      vertex 1.371678 -1.720029 7.500000
      vertex 2.200000 0.000000 0.000000
      vertex 1.371678 -1.720029 0.000000
    endloop
  endfacet
  facet normal -0.222521 0.974928 0.000000
    outer loop
      vertex 1.371678 -1.720029 7.500000
      vertex 1.371678 -1.720029 0.000000
      vertex -0.489546 -2.144841 7.500000
    endloop
  endfacet
  facet normal -0.222521 0.974928 0.000000
    outer loop
      vertex -0.489546 -2.144841 7.500000
      vertex 1.371678 -1.720029 0.000000
      vertex -0.489546 -2.144841 0.000000
    endloop
  endfacet
  facet normal 0.623490 0.781832 -0.000000
    outer loop
      vertex -0.489546 -2.144841 7.500000
      vertex -0.489546 -2.144841 0.000000
      vertex -1.982132 -0.954544 7.500000
    endloop
  endfacet
  facet normal 0.623490 0.781832 -0.000000
    outer loop
      vertex -1.982132 -0.954544 7.500000
      vertex -0.489546 -2.144841 0.000000
      vertex -1.982132 -0.954544 0.000000
    endloop
  endfacet
  facet normal -0.743145 0.669131 0.000000
    outer loop
      vertex -8.090170 5.877853 5.000000
      vertex -8.090170 5.877853 10.000000
      vertex -6.691306 7.431448 5.000000
    endloop
  endfacet
  facet normal -0.743145 0.669131 0.000000
    outer loop
      vertex -6.691306 7.431448 5.000000
      vertex -8.090170 5.877853 10.000000
      vertex -6.691306 7.431448 10.000000
    endloop
  endfacet
  facet normal -0.712125 0.641200 0.285903
    outer loop
      vertex -6.691306 7.431448 10.000000
      vertex -8.090170 5.877853 10.000000
      vertex -5.687610 6.316731 15.000000
    endloop
  endfacet
  facet normal -0.712125 0.641200 0.285903
    outer loop
      vertex -5.687610 6.316731 15.000000
      vertex -8.090170 5.877853 10.000000
      vertex -6.876644 4.996175 15.000000
    endloop
  endfacet
  facet normal -0.563250 0.775247 0.285903
    outer loop
      vertex -4.250000 7.361216 15.000000
      vertex -6.691306 7.431448 10.000000
      vertex -5.687610 6.316731 15.000000
    endloop
  endfacet
  facet normal -0.563250 0.775247 0.285903
    outer loop
      vertex -5.000000 8.660254 10.000000
      vertex -6.691306 7.431448 10.000000
      vertex -4.250000 7.361216 15.000000
    endloop
  endfacet
  facet normal -0.389759 0.875413 0.285903
    outer loop
      vertex -2.626644 8.083980 15.000000
      vertex -5.000000 8.660254 10.000000
      vertex -4.250000 7.361216 15.000000
    endloop
  endfacet
  facet normal -0.389759 0.875413 0.285903
    outer loop
      vertex -3.090170 9.510565 10.000000
      vertex -5.000000 8.660254 10.000000
      vertex -2.626644 8.083980 15.000000
    endloop
  endfacet
  facet normal -0.199233 0.937318 0.285903
    outer loop
      vertex -0.888492 8.453436 15.000000
      vertex -3.090170 9.510565 10.000000
      vertex -2.626644 8.083980 15.000000
    endloop
  endfacet
  facet normal -0.199233 0.937318 0.285903
    outer loop
      vertex -1.045285 9.945219 10.000000
      vertex -3.090170 9.510565 10.000000
      vertex -0.888492 8.453436 15.000000
    endloop
  endfacet
  facet normal 0.000000 0.958259 0.285903
    outer loop
      vertex -1.045285 9.945219 10.000000
      vertex -0.888492 8.453436 15.000000
      vertex 1.045285 9.945219 10.000000
    endloop
  endfacet
  facet normal 0.000000 0.958259 0.285903
    outer loop
      vertex 1.045285 9.945219 10.000000
      vertex -0.888492 8.453436 15.000000
      vertex 0.888492 8.453436 15.000000
    endloop
  endfacet
  facet normal 0.199233 0.937318 0.285903
    outer loop
      vertex 1.045285 9.945219 10.000000
      vertex 0.888492 8.453436 15.000000
      vertex 2.626644 8.083980 15.000000
    endloop
  endfacet
  facet normal 0.199233 0.937318 0.285903
    outer loop
      vertex 3.090170 9.510565 10.000000
      vertex 1.045285 9.945219 10.000000
      vertex 2.626644 8.083980 15.000000
    endloop
  endfacet
  facet normal 0.389759 0.875413 0.285903
    outer loop
      vertex 3.090170 9.510565 10.000000
      vertex 2.626644 8.083980 15.000000
      vertex 4.250000 7.361216 15.000000
    endloop
  endfacet
  facet normal 0.389759 0.875413 0.285903
    outer loop
      vertex 5.000000 8.660254 10.000000
      vertex 3.090170 9.510565 10.000000
      vertex 4.250000 7.361216 15.000000
    endloop
  endfacet
  facet normal 0.563250 0.775247 0.285903
    outer loop
      vertex 5.000000 8.660254 10.000000
      vertex 4.250000 7.361216 15.000000
      vertex 5.687610 6.316731 15.000000
    endloop
  endfacet
  facet normal 0.563250 0.775247 0.285903
    outer loop
      vertex 6.691306 7.431448 10.000000
      vertex 5.000000 8.660254 10.000000
      vertex 5.687610 6.316731 15.000000
    endloop
  endfacet
  facet normal 0.712125 0.641200 0.285903
    outer loop
      vertex 6.691306 7.431448 10.000000
      vertex 5.687610 6.316731 15.000000
      vertex 6.876644 4.996175 15.000000
    endloop
  endfacet
  facet normal 0.712125 0.641200 0.285903
    outer loop
      vertex 8.090170 5.877853 10.000000
      vertex 6.691306 7.431448 10.000000
      vertex 6.876644 4.996175 15.000000
    endloop
  endfacet
  facet normal 0.829876 0.479129 0.285903
    outer loop
      vertex 8.090170 5.877853 10.000000
      vertex 6.876644 4.996175 15.000000
      vertex 7.765136 3.457261 15.000000
    endloop
  endfacet
  facet normal 0.829876 0.479129 0.285903
    outer loop
      vertex 8.090170 5.877853 10.000000
      vertex 7.765136 3.457261 15.000000
      vertex 9.135455 4.067366 10.000000
    endloop
  endfacet
  facet normal 0.911358 0.296119 0.285903
    outer loop
      vertex 9.135455 4.067366 10.000000
      vertex 7.765136 3.457261 15.000000
      vertex 8.314255 1.767249 15.000000
    endloop
  endfacet
  facet normal 0.911358 0.296118 0.285903
    outer loop
      vertex 9.135455 4.067366 10.000000
      vertex 8.314255 1.767249 15.000000
      vertex 9.781476 2.079117 10.000000
    endloop
  endfacet
  facet normal 0.953009 0.100165 0.285903
    outer loop
      vertex 9.781476 2.079117 10.000000
      vertex 8.314255 1.767249 15.000000
      vertex 8.500000 0.000000 15.000000
    endloop
  endfacet
  facet normal 0.953009 0.100165 0.285903
    outer loop
      vertex 9.781476 2.079117 10.000000
      vertex 8.500000 0.000000 15.000000
      vertex 10.000000 0.000000 10.000000
    endloop
  endfacet
  facet normal 0.953009 -0.100165 0.285903
    outer loop
      vertex 8.500000 0.000000 15.000000
      vertex 8.314255 -1.767249 15.000000
      vertex 10.000000 0.000000 10.000000
    endloop
  endfacet
  facet normal 0.953009 -0.100165 0.285903
    outer loop
      vertex 10.000000 0.000000 10.000000
      vertex 8.314255 -1.767249 15.000000
      vertex 9.781476 -2.079117 10.000000
    endloop
  endfacet
  facet normal 0.911358 -0.296119 0.285903
    outer loop
      vertex 8.314255 -1.767249 15.000000
      vertex 7.765136 -3.457261 15.000000
      vertex 9.781476 -2.079117 10.000000
    endloop
  endfacet
  facet normal 0.911358 -0.296118 0.285903
    outer loop
      vertex 9.781476 -2.079117 10.000000
      vertex 7.765136 -3.457261 15.000000
      vertex 9.135455 -4.067366 10.000000
    endloop
  endfacet
  facet normal 0.829876 -0.479129 0.285903
    outer loop
      vertex 7.765136 -3.457261 15.000000
      vertex 6.876644 -4.996175 15.000000
      vertex 9.135455 -4.067366 10.000000
    endloop
  endfacet
  facet normal 0.829876 -0.479129 0.285903
    outer loop
      vertex 9.135455 -4.067366 10.000000
      vertex 6.876644 -4.996175 15.000000
      vertex 8.090170 -5.877853 10.000000
    endloop
  endfacet
  facet normal 0.712125 -0.641200 0.285903
    outer loop
      vertex 6.876644 -4.996175 15.000000
      vertex 5.687610 -6.316731 15.000000
      vertex 8.090170 -5.877853 10.000000
    endloop
  endfacet
  facet normal 0.712125 -0.641200 0.285903
    outer loop
      vertex 8.090170 -5.877853 10.000000
      vertex 5.687610 -6.316731 15.000000
      vertex 6.691306 -7.431448 10.000000
    endloop
  endfacet
  facet normal 0.563250 -0.775247 0.285903
    outer loop
      vertex 5.687610 -6.316731 15.000000
      vertex 4.250000 -7.361216 15.000000
      vertex 6.691306 -7.431448 10.000000
    endloop
  endfacet
  facet normal 0.563250 -0.775247 0.285903
    outer loop
      vertex 6.691306 -7.431448 10.000000
      vertex 4.250000 -7.361216 15.000000
      vertex 5.000000 -8.660254 10.000000
    endloop
  endfacet
  facet normal 0.389759 -0.875413 0.285903
    outer loop
      vertex 4.250000 -7.361216 15.000000
      vertex 2.626644 -8.083980 15.000000
      vertex 5.000000 -8.660254 10.000000
    endloop
  endfacet
  facet normal 0.389759 -0.875413 0.285903
    outer loop
      vertex 5.000000 -8.660254 10.000000
      vertex 2.626644 -8.083980 15.000000
      vertex 3.090170 -9.510565 10.000000
    endloop
  endfacet
  facet normal 0.199233 -0.937318 0.285903
    outer loop
      vertex 2.626644 -8.083980 15.000000
      vertex 0.888492 -8.453436 15.000000
      vertex 3.090170 -9.510565 10.000000
    endloop
  endfacet
  facet normal 0.199233 -0.937318 0.285903
    outer loop
      vertex 3.090170 -9.510565 10.000000
      vertex 0.888492 -8.453436 15.000000
      vertex 1.045285 -9.945219 10.000000
    endloop
  endfacet
  facet normal 0.000000 -0.958259 0.285903
    outer loop
      vertex -0.888492 -8.453436 15.000000
      vertex -1.045285 -9.945219 10.000000
      vertex 1.045285 -9.945219 10.000000
    endloop
  endfacet
  facet normal 0.000000 -0.958259 0.285903
    outer loop
      vertex 0.888492 -8.453436 15.000000
      vertex -0.888492 -8.453436 15.000000
      vertex 1.045285 -9.945219 10.000000
    endloop
  endfacet
  facet normal -0.199233 -0.937318 0.285903
    outer loop
      vertex -0.888492 -8.453436 15.000000
      vertex -2.626644 -8.083980 15.000000
      vertex -1.045285 -9.945219 10.000000
    endloop
  endfacet
  facet normal -0.199233 -0.937318 0.285903
    outer loop
      vertex -2.626644 -8.083980 15.000000
      vertex -3.090170 -9.510565 10.000000
      vertex -1.045285 -9.945219 10.000000
    endloop
  endfacet
  facet normal -0.389759 -0.875413 0.285903
    outer loop
      vertex -2.626644 -8.083980 15.000000
      vertex -4.250000 -7.361216 15.000000
      vertex -3.090170 -9.510565 10.000000
    endloop
  endfacet
  facet normal -0.389759 -0.875413 0.285903
    outer loop
      vertex -4.250000 -7.361216 15.000000
      vertex -5.000000 -8.660254 10.000000
      vertex -3.090170 -9.510565 10.000000
    endloop
  endfacet
  facet normal -0.563250 -0.775247 0.285903
    outer loop
      vertex -4.250000 -7.361216 15.000000
      vertex -5.687610 -6.316731 15.000000
      vertex -5.000000 -8.660254 10.000000
    endloop
  endfacet
  facet normal -0.563250 -0.775247 0.285903
    outer loop
      vertex -5.687610 -6.316731 15.000000
      vertex -6.691306 -7.431448 10.000000
      vertex -5.000000 -8.660254 10.000000
    endloop
  endfacet
  facet normal -0.712125 -0.641200 0.285903
    outer loop
      vertex -5.687610 -6.316731 15.000000
      vertex -6.876644 -4.996175 15.000000
      vertex -6.691306 -7.431448 10.000000
    endloop
  endfacet
  facet normal -0.712125 -0.641200 0.285903
    outer loop
      vertex -6.876644 -4.996175 15.000000
      vertex -8.090170 -5.877853 10.000000
      vertex -6.691306 -7.431448 10.000000
    endloop
  endfacet
  facet normal -0.829876 -0.479129 0.285903
    outer loop
      vertex -7.765136 -3.457261 15.000000
      vertex -8.090170 -5.877853 10.000000
      vertex -6.876644 -4.996175 15.000000
    endloop
  endfacet
  facet normal 1.000000 0.000000 0.000000
    outer loop
      vertex -6.427400 0.968775 7.500000
      vertex -6.427400 0.968775 15.000000
      vertex -6.427400 -0.968775 15.000000
    endloop
  endfacet
  facet normal 1.000000 0.000000 0.000000
    outer loop
      vertex -6.427400 -0.968775 7.500000
      vertex -6.427400 0.968775 7.500000
      vertex -6.427400 -0.968775 15.000000
    endloop
  endfacet
  facet normal 0.955573 0.294755 0.000000
    outer loop
      vertex -6.427400 -0.968775 15.000000
      vertex -5.856298 -2.820244 15.000000
      vertex -5.856298 -2.820244 7.500000
    endloop
  endfacet
  facet normal 0.955573 0.294755 0.000000
    outer loop
      vertex -6.427400 -0.968775 7.500000
      vertex -6.427400 -0.968775 15.000000
      vertex -5.856298 -2.820244 7.500000
    endloop
  endfacet
  facet normal 0.826239 0.563320 0.000000
    outer loop
      vertex -5.856298 -2.820244 15.000000
      vertex -4.764837 -4.421123 15.000000
      vertex -4.764837 -4.421123 7.500000
    endloop
  endfacet
  facet normal 0.826239 0.563320 0.000000
    outer loop
      vertex -5.856298 -2.820244 7.500000
      vertex -5.856298 -2.820244 15.000000
      vertex -4.764837 -4.421123 7.500000
    endloop
  endfacet
  facet normal 0.623490 0.781832 -0.000000
    outer loop
      vertex -3.250000 -5.629165 15.000000
      vertex -3.250000 -5.629165 7.500000
      vertex -4.764837 -4.421123 15.000000
    endloop
  endfacet
  facet normal 0.623490 0.781832 -0.000000
    outer loop
      vertex -4.764837 -4.421123 15.000000
      vertex -3.250000 -5.629165 7.500000
      vertex -4.764837 -4.421123 7.500000
    endloop
  endfacet
  facet normal 0.365341 0.930874 -0.000000
    outer loop
      vertex -1.446386 -6.337031 15.000000
      vertex -1.446386 -6.337031 7.500000
      vertex -3.250000 -5.629165 15.000000
    endloop
  endfacet
  facet normal 0.365341 0.930874 -0.000000
    outer loop
      vertex -3.250000 -5.629165 15.000000
      vertex -1.446386 -6.337031 7.500000
      vertex -3.250000 -5.629165 7.500000
    endloop
  endfacet
  facet normal 0.074730 0.997204 -0.000000
    outer loop
      vertex 0.485746 -6.481825 15.000000
      vertex 0.485746 -6.481825 7.500000
      vertex -1.446386 -6.337031 15.000000
    endloop
  endfacet
  facet normal 0.074730 0.997204 -0.000000
    outer loop
      vertex -1.446386 -6.337031 15.000000
      vertex 0.485746 -6.481825 7.500000
      vertex -1.446386 -6.337031 7.500000
    endloop
  endfacet
  facet normal -0.222521 0.974928 0.000000
    outer loop
      vertex 2.374717 -6.050679 15.000000
      vertex 2.374717 -6.050679 7.500000
      vertex 0.485746 -6.481825 15.000000
    endloop
  endfacet
  facet normal -0.222521 0.974928 0.000000
    outer loop
      vertex 0.485746 -6.481825 15.000000
      vertex 2.374717 -6.050679 7.500000
      vertex 0.485746 -6.481825 7.500000
    endloop
  endfacet
  facet normal -0.500000 0.866026 0.000000
    outer loop
      vertex 4.052684 -5.081905 15.000000
      vertex 4.052684 -5.081905 7.500000
      vertex 2.374717 -6.050679 15.000000
    endloop
  endfacet
  facet normal -0.500000 0.866026 0.000000
    outer loop
      vertex 2.374717 -6.050679 15.000000
      vertex 4.052684 -5.081905 7.500000
      vertex 2.374717 -6.050679 7.500000
    endloop
  endfacet
  facet normal -0.733052 0.680172 0.000000
    outer loop
      vertex 5.370552 -3.661580 15.000000
      vertex 5.370552 -3.661580 7.500000
      vertex 4.052684 -5.081905 15.000000
    endloop
  endfacet
  facet normal -0.733052 0.680172 0.000000
    outer loop
      vertex 4.052684 -5.081905 15.000000
      vertex 5.370552 -3.661580 7.500000
      vertex 4.052684 -5.081905 7.500000
    endloop
  endfacet
  facet normal -0.900969 0.433884 0.000000
    outer loop
      vertex 6.211223 -1.915909 15.000000
      vertex 6.211223 -1.915909 7.500000
      vertex 5.370552 -3.661580 15.000000
    endloop
  endfacet
  facet normal -0.900969 0.433884 0.000000
    outer loop
      vertex 5.370552 -3.661580 15.000000
      vertex 6.211223 -1.915909 7.500000
      vertex 5.370552 -3.661580 7.500000
    endloop
  endfacet
  facet normal -0.988831 0.149042 0.000000
    outer loop
      vertex 6.500000 0.000000 15.000000
      vertex 6.500000 0.000000 7.500000
      vertex 6.211223 -1.915909 15.000000
    endloop
  endfacet
  facet normal -0.988831 0.149042 0.000000
    outer loop
      vertex 6.211223 -1.915909 15.000000
      vertex 6.500000 0.000000 7.500000
      vertex 6.211223 -1.915909 7.500000
    endloop
  endfacet
  facet normal -0.988831 -0.149042 0.000000
    outer loop
      vertex 6.500000 0.000000 15.000000
      vertex 6.211223 1.915909 15.000000
      vertex 6.500000 0.000000 7.500000
    endloop
  endfacet
  facet normal -0.988831 -0.149042 0.000000
    outer loop
      vertex 6.500000 0.000000 7.500000
      vertex 6.211223 1.915909 15.000000
      vertex 6.211223 1.915909 7.500000
    endloop
  endfacet
  facet normal -0.900969 -0.433884 0.000000
    outer loop
      vertex 6.211223 1.915909 15.000000
      vertex 5.370552 3.661580 15.000000
      vertex 6.211223 1.915909 7.500000
    endloop
  endfacet
  facet normal -0.900969 -0.433884 0.000000
    outer loop
      vertex 6.211223 1.915909 7.500000
      vertex 5.370552 3.661580 15.000000
      vertex 5.370552 3.661580 7.500000
    endloop
  endfacet
  facet normal -0.733052 -0.680172 0.000000
    outer loop
      vertex 5.370552 3.661580 15.000000
      vertex 4.052684 5.081905 15.000000
      vertex 5.370552 3.661580 7.500000
    endloop
  endfacet
  facet normal -0.733052 -0.680172 0.000000
    outer loop
      vertex 5.370552 3.661580 7.500000
      vertex 4.052684 5.081905 15.000000
      vertex 4.052684 5.081905 7.500000
    endloop
  endfacet
  facet normal -0.500000 -0.866026 -0.000000
    outer loop
      vertex 4.052684 5.081905 7.500000
      vertex 4.052684 5.081905 15.000000
      vertex 2.374717 6.050679 15.000000
    endloop
  endfacet
  facet normal -0.500000 -0.866026 -0.000000
    outer loop
      vertex 2.374717 6.050679 7.500000
      vertex 4.052684 5.081905 7.500000
      vertex 2.374717 6.050679 15.000000
    endloop
  endfacet
  facet normal -0.222521 -0.974928 -0.000000
    outer loop
      vertex 2.374717 6.050679 7.500000
      vertex 2.374717 6.050679 15.000000
      vertex 0.485746 6.481825 15.000000
    endloop
  endfacet
  facet normal -0.222521 -0.974928 -0.000000
    outer loop
      vertex 0.485746 6.481825 7.500000
      vertex 2.374717 6.050679 7.500000
      vertex 0.485746 6.481825 15.000000
    endloop
  endfacet
  facet normal 0.074730 -0.997204 0.000000
    outer loop
      vertex 0.485746 6.481825 7.500000
      vertex 0.485746 6.481825 15.000000
      vertex -1.446386 6.337031 15.000000
    endloop
  endfacet
  facet normal 0.074730 -0.997204 0.000000
    outer loop
      vertex -1.446386 6.337031 7.500000
      vertex 0.485746 6.481825 7.500000
      vertex -1.446386 6.337031 15.000000
    endloop
  endfacet
  facet normal 0.365341 -0.930874 0.000000
    outer loop
      vertex -1.446386 6.337031 7.500000
      vertex -1.446386 6.337031 15.000000
      vertex -3.250000 5.629165 15.000000
    endloop
  endfacet
  facet normal 0.365341 -0.930874 0.000000
    outer loop
      vertex -3.250000 5.629165 7.500000
      vertex -1.446386 6.337031 7.500000
      vertex -3.250000 5.629165 15.000000
    endloop
  endfacet
  facet normal 0.623490 -0.781832 0.000000
    outer loop
      vertex -3.250000 5.629165 7.500000
      vertex -3.250000 5.629165 15.000000
      vertex -4.764837 4.421123 15.000000
    endloop
  endfacet
  facet normal 0.623490 -0.781832 0.000000
    outer loop
      vertex -4.764837 4.421123 7.500000
      vertex -3.250000 5.629165 7.500000
      vertex -4.764837 4.421123 15.000000
    endloop
  endfacet
  facet normal 0.826239 -0.563320 0.000000
    outer loop
      vertex -4.764837 4.421123 7.500000
      vertex -4.764837 4.421123 15.000000
      vertex -5.856298 2.820244 15.000000
    endloop
  endfacet
  facet normal 0.826239 -0.563320 0.000000
    outer loop
      vertex -5.856298 2.820244 7.500000
      vertex -4.764837 4.421123 7.500000
      vertex -5.856298 2.820244 15.000000
    endloop
  endfacet
  facet normal 0.955573 -0.294755 0.000000
    outer loop
      vertex -5.856298 2.820244 7.500000
      vertex -5.856298 2.820244 15.000000
      vertex -6.427400 0.968775 15.000000
    endloop
  endfacet
  facet normal 0.955573 -0.294755 0.000000
    outer loop
      vertex -6.427400 0.968775 7.500000
      vertex -5.856298 2.820244 7.500000
      vertex -6.427400 0.968775 15.000000
    endloop
  endfacet
  facet normal -0.743145 -0.669131 -0.000000
    outer loop
      vertex -8.090170 -5.877853 5.000000
      vertex -6.691306 -7.431448 5.000000
      vertex -8.090170 -5.877853 10.000000
    endloop
  endfacet
  facet normal -0.743145 -0.669131 0.000000
    outer loop
      vertex -8.090170 -5.877853 10.000000
      vertex -6.691306 -7.431448 5.000000
      vertex -6.691306 -7.431448 10.000000
    endloop
  endfacet
  facet normal -0.587785 -0.809017 0.000000
    outer loop
      vertex -6.691306 -7.431448 10.000000
      vertex -6.691306 -7.431448 5.000000
      vertex -5.000000 -8.660254 5.000000
    endloop
  endfacet
  facet normal -0.587785 -0.809017 0.000000
    outer loop
      vertex -5.000000 -8.660254 10.000000
      vertex -6.691306 -7.431448 10.000000
      vertex -5.000000 -8.660254 5.000000
    endloop
  endfacet
  facet normal -0.406737 -0.913545 0.000000
    outer loop
      vertex -5.000000 -8.660254 10.000000
      vertex -5.000000 -8.660254 5.000000
      vertex -3.090170 -9.510565 5.000000
    endloop
  endfacet
  facet normal -0.406737 -0.913545 0.000000
    outer loop
      vertex -3.090170 -9.510565 10.000000
      vertex -5.000000 -8.660254 10.000000
      vertex -3.090170 -9.510565 5.000000
    endloop
  endfacet
  facet normal -0.207912 -0.978148 0.000000
    outer loop
      vertex -3.090170 -9.510565 10.000000
      vertex -3.090170 -9.510565 5.000000
      vertex -1.045285 -9.945219 5.000000
    endloop
  endfacet
  facet normal -0.207912 -0.978148 0.000000
    outer loop
      vertex -1.045285 -9.945219 10.000000
      vertex -3.090170 -9.510565 10.000000
      vertex -1.045285 -9.945219 5.000000
    endloop
  endfacet
  facet normal 0.000000 -1.000000 0.000000
    outer loop
      vertex -1.045285 -9.945219 10.000000
      vertex -1.045285 -9.945219 5.000000
      vertex 1.045285 -9.945219 5.000000
    endloop
  endfacet
  facet normal 0.000000 -1.000000 0.000000
    outer loop
      vertex 1.045285 -9.945219 10.000000
      vertex -1.045285 -9.945219 10.000000
      vertex 1.045285 -9.945219 5.000000
    endloop
  endfacet
  facet normal 0.207912 -0.978148 0.000000
    outer loop
      vertex 1.045285 -9.945219 10.000000
      vertex 1.045285 -9.945219 5.000000
      vertex 3.090170 -9.510565 5.000000
    endloop
  endfacet
  facet normal 0.207912 -0.978148 0.000000
    outer loop
      vertex 3.090170 -9.510565 10.000000
      vertex 1.045285 -9.945219 10.000000
      vertex 3.090170 -9.510565 5.000000
    endloop
  endfacet
  facet normal 0.406737 -0.913545 0.000000
    outer loop
      vertex 3.090170 -9.510565 10.000000
      vertex 3.090170 -9.510565 5.000000
      vertex 5.000000 -8.660254 5.000000
    endloop
  endfacet
  facet normal 0.406737 -0.913545 0.000000
    outer loop
      vertex 5.000000 -8.660254 10.000000
      vertex 3.090170 -9.510565 10.000000
      vertex 5.000000 -8.660254 5.000000
    endloop
  endfacet
  facet normal 0.587785 -0.809017 0.000000
    outer loop
      vertex 5.000000 -8.660254 10.000000
      vertex 5.000000 -8.660254 5.000000
      vertex 6.691306 -7.431448 5.000000
    endloop
  endfacet
  facet normal 0.587785 -0.809017 0.000000
    outer loop
      vertex 6.691306 -7.431448 10.000000
      vertex 5.000000 -8.660254 10.000000
      vertex 6.691306 -7.431448 5.000000
    endloop
  endfacet
  facet normal 0.743145 -0.669131 0.000000
    outer loop
      vertex 6.691306 -7.431448 10.000000
      vertex 6.691306 -7.431448 5.000000
      vertex 8.090170 -5.877853 5.000000
    endloop
  endfacet
  facet normal 0.743145 -0.669131 0.000000
    outer loop
      vertex 8.090170 -5.877853 10.000000
      vertex 6.691306 -7.431448 10.000000
      vertex 8.090170 -5.877853 5.000000
    endloop
  endfacet
  facet normal 0.866025 -0.500000 0.000000
    outer loop
      vertex 8.090170 -5.877853 10.000000
      vertex 8.090170 -5.877853 5.000000
      vertex 9.135455 -4.067366 5.000000
    endloop
  endfacet
  facet normal 0.866025 -0.500000 0.000000
    outer loop
      vertex 9.135455 -4.067366 10.000000
      vertex 8.090170 -5.877853 10.000000
      vertex 9.135455 -4.067366 5.000000
    endloop
  endfacet
  facet normal 0.951057 -0.309017 0.000000
    outer loop
      vertex 9.135455 -4.067366 10.000000
      vertex 9.135455 -4.067366 5.000000
      vertex 9.781476 -2.079117 5.000000
    endloop
  endfacet
  facet normal 0.951057 -0.309017 0.000000
    outer loop
      vertex 9.781476 -2.079117 10.000000
      vertex 9.135455 -4.067366 10.000000
      vertex 9.781476 -2.079117 5.000000
    endloop
  endfacet
  facet normal 0.994522 -0.104528 0.000000
    outer loop
      vertex 9.781476 -2.079117 10.000000
      vertex 9.781476 -2.079117 5.000000
      vertex 10.000000 0.000000 5.000000
    endloop
  endfacet
  facet normal 0.994522 -0.104528 0.000000
    outer loop
      vertex 10.000000 0.000000 10.000000
      vertex 9.781476 -2.079117 10.000000
      vertex 10.000000 0.000000 5.000000
    endloop
  endfacet
  facet normal 0.994522 0.104528 0.000000
    outer loop
      vertex 10.000000 0.000000 5.000000
      vertex 9.781476 2.079117 5.000000
      vertex 9.781476 2.079117 10.000000
    endloop
  endfacet
  facet normal 0.994522 0.104528 -0.000000
    outer loop
      vertex 10.000000 0.000000 10.000000
      vertex 10.000000 0.000000 5.000000
      vertex 9.781476 2.079117 10.000000
    endloop
  endfacet
  facet normal 0.951057 0.309017 0.000000
    outer loop
      vertex 9.781476 2.079117 5.000000
      vertex 9.135455 4.067366 5.000000
      vertex 9.135455 4.067366 10.000000
    endloop
  endfacet
  facet normal 0.951057 0.309017 -0.000000
    outer loop
      vertex 9.781476 2.079117 10.000000
      vertex 9.781476 2.079117 5.000000
      vertex 9.135455 4.067366 10.000000
    endloop
  endfacet
  facet normal 0.866025 0.500000 0.000000
    outer loop
      vertex 9.135455 4.067366 5.000000
      vertex 8.090170 5.877853 5.000000
      vertex 8.090170 5.877853 10.000000
    endloop
  endfacet
  facet normal 0.866025 0.500000 -0.000000
    outer loop
      vertex 9.135455 4.067366 10.000000
      vertex 9.135455 4.067366 5.000000
      vertex 8.090170 5.877853 10.000000
    endloop
  endfacet
  facet normal 0.743145 0.669131 0.000000
    outer loop
      vertex 8.090170 5.877853 5.000000
      vertex 6.691306 7.431448 5.000000
      vertex 6.691306 7.431448 10.000000
    endloop
  endfacet
  facet normal 0.743145 0.669131 -0.000000
    outer loop
      vertex 8.090170 5.877853 10.000000
      vertex 8.090170 5.877853 5.000000
      vertex 6.691306 7.431448 10.000000
    endloop
  endfacet
  facet normal 0.587785 0.809017 0.000000
    outer loop
      vertex 5.000000 8.660254 5.000000
      vertex 5.000000 8.660254 10.000000
      vertex 6.691306 7.431448 5.000000
    endloop
  endfacet
  facet normal 0.587785 0.809017 0.000000
    outer loop
      vertex 6.691306 7.431448 5.000000
      vertex 5.000000 8.660254 10.000000
      vertex 6.691306 7.431448 10.000000
    endloop
  endfacet
  facet normal 0.406737 0.913545 0.000000
    outer loop
      vertex 3.090170 9.510565 5.000000
      vertex 3.090170 9.510565 10.000000
      vertex 5.000000 8.660254 5.000000
    endloop
  endfacet
  facet normal 0.406737 0.913545 0.000000
    outer loop
      vertex 5.000000 8.660254 5.000000
      vertex 3.090170 9.510565 10.000000
      vertex 5.000000 8.660254 10.000000
    endloop
  endfacet
  facet normal 0.207912 0.978148 0.000000
    outer loop
      vertex 1.045285 9.945219 5.000000
      vertex 1.045285 9.945219 10.000000
      vertex 3.090170 9.510565 5.000000
    endloop
  endfacet
  facet normal 0.207912 0.978148 0.000000
    outer loop
      vertex 3.090170 9.510565 5.000000
      vertex 1.045285 9.945219 10.000000
      vertex 3.090170 9.510565 10.000000
    endloop
  endfacet
  facet normal 0.000000 1.000000 0.000000
    outer loop
      vertex -1.045285 9.945219 5.000000
      vertex -1.045285 9.945219 10.000000
      vertex 1.045285 9.945219 5.000000
    endloop
  endfacet
  facet normal 0.000000 1.000000 0.000000
    outer loop
      vertex 1.045285 9.945219 5.000000
      vertex -1.045285 9.945219 10.000000
      vertex 1.045285 9.945219 10.000000
    endloop
  endfacet
  facet normal -0.207912 0.978148 0.000000
    outer loop
      vertex -3.090170 9.510565 5.000000
      vertex -3.090170 9.510565 10.000000
      vertex -1.045285 9.945219 5.000000
    endloop
  endfacet
  facet normal -0.207912 0.978148 0.000000
    outer loop
      vertex -1.045285 9.945219 5.000000
      vertex -3.090170 9.510565 10.000000
      vertex -1.045285 9.945219 10.000000
    endloop
  endfacet
  facet normal -0.406737 0.913545 0.000000
    outer loop
      vertex -5.000000 8.660254 5.000000
      vertex -5.000000 8.660254 10.000000
      vertex -3.090170 9.510565 5.000000
    endloop
  endfacet
  facet normal -0.406737 0.913545 0.000000
    outer loop
      vertex -3.090170 9.510565 5.000000
      vertex -5.000000 8.660254 10.000000
      vertex -3.090170 9.510565 10.000000
    endloop
  endfacet
  facet normal -0.587785 0.809017 0.000000
    outer loop
      vertex -6.691306 7.431448 5.000000
      vertex -6.691306 7.431448 10.000000
      vertex -5.000000 8.660254 5.000000
    endloop
  endfacet
  facet normal -0.587785 0.809017 0.000000
    outer loop
      vertex -5.000000 8.660254 5.000000
      vertex -6.691306 7.431448 10.000000
      vertex -5.000000 8.660254 10.000000
    endloop
  endfacet
  facet normal 0.000000 0.000000 1.000000
    outer loop
      vertex -5.856298 -2.820244 7.500000
      vertex -4.764837 -4.421123 7.500000
      vertex -3.250000 -5.629165 7.500000
    endloop
  endfacet
  facet normal 0.000000 0.000000 1.000000
    outer loop
      vertex 0.485746 -6.481825 7.500000
      vertex -5.856298 -2.820244 7.500000
      vertex -1.446386 -6.337031 7.500000
    endloop
  endfacet
  facet normal 0.000000 0.000000 1.000000
    outer loop
      vertex -1.446386 -6.337031 7.500000
      vertex -5.856298 -2.820244 7.500000
      vertex -3.250000 -5.629165 7.500000
    endloop
  endfacet
  facet normal -0.000000 0.000000 1.000000
    outer loop
      vertex 2.374717 -6.050679 7.500000
      vertex -5.856298 -2.820244 7.500000
      vertex 0.485746 -6.481825 7.500000
    endloop
  endfacet
  facet normal -0.000000 0.000000 1.000000
    outer loop
      vertex 4.052684 -5.081905 7.500000
      vertex -5.856298 -2.820244 7.500000
      vertex 2.374717 -6.050679 7.500000
    endloop
  endfacet
  facet normal -0.000000 0.000000 1.000000
    outer loop
      vertex 5.370552 -3.661580 7.500000
      vertex -5.856298 -2.820244 7.500000
      vertex 4.052684 -5.081905 7.500000
    endloop
  endfacet
  facet normal 0.000000 0.000000 1.000000
    outer loop
      vertex 6.211223 -1.915909 7.500000
      vertex -5.856298 -2.820244 7.500000
      vertex 5.370552 -3.661580 7.500000
    endloop
  endfacet
  facet normal 0.000000 -0.000000 1.000000
    outer loop
      vertex -0.489546 -2.144841 7.500000
      vertex -5.856298 -2.820244 7.500000
      vertex 6.211223 -1.915909 7.500000
    endloop
  endfacet
  facet normal 0.000000 -0.000000 1.000000
    outer loop
      vertex 2.200000 0.000000 7.500000
      vertex 1.371678 -1.720029 7.500000
      vertex 6.500000 0.000000 7.500000
    endloop
  endfacet
  facet normal 0.000000 0.000000 1.000000
    outer loop
      vertex 1.371678 1.720029 7.500000
      vertex 6.211223 1.915909 7.500000
      vertex 5.370552 3.661580 7.500000
    endloop
  endfacet
  facet normal 0.000000 -0.000000 1.000000
    outer loop
      vertex 0.485746 6.481825 7.500000
      vertex -5.856298 -2.820244 7.500000
      vertex 2.374717 6.050679 7.500000
    endloop
  endfacet
  facet normal 0.000000 -0.000000 1.000000
    outer loop
      vertex -1.446386 6.337031 7.500000
      vertex -5.856298 -2.820244 7.500000
      vertex 0.485746 6.481825 7.500000
    endloop
  endfacet
  facet normal 0.000000 -0.000000 1.000000
    outer loop
      vertex -3.250000 5.629165 7.500000
      vertex -5.856298 -2.820244 7.500000
      vertex -1.446386 6.337031 7.500000
    endloop
  endfacet
  facet normal 0.000000 -0.000000 1.000000
    outer loop
      vertex -4.764837 4.421123 7.500000
      vertex -5.856298 -2.820244 7.500000
      vertex -3.250000 5.629165 7.500000
    endloop
  endfacet
  facet normal 0.000000 -0.000000 1.000000
    outer loop
      vertex -5.856298 2.820244 7.500000
      vertex -5.856298 -2.820244 7.500000
      vertex -4.764837 4.421123 7.500000
    endloop
  endfacet
  facet normal 0.000000 0.000000 1.000000
    outer loop
      vertex -6.427400 0.968775 7.500000
      vertex -5.856298 -2.820244 7.500000
      vertex -5.856298 2.820244 7.500000
    endloop
  endfacet
  facet normal 0.000000 0.000000 1.000000
    outer loop
      vertex -6.427400 -0.968775 7.500000
      vertex -5.856298 -2.820244 7.500000
      vertex -6.427400 0.968775 7.500000
    endloop
  endfacet
  facet normal 0.000000 0.000000 1.000000
    outer loop
      vertex 2.374717 6.050679 7.500000
      vertex -5.856298 -2.820244 7.500000
      vertex -1.982132 0.954544 7.500000
    endloop
  endfacet
  facet normal 0.000000 -0.000000 1.000000
    outer loop
      vertex 2.374717 6.050679 7.500000
      vertex -0.489546 2.144841 7.500000
      vertex 4.052684 5.081905 7.500000
    endloop
  endfacet
  facet normal 0.000000 0.000000 1.000000
    outer loop
      vertex 2.374717 6.050679 7.500000
      vertex -1.982132 0.954544 7.500000
      vertex -0.489546 2.144841 7.500000
    endloop
  endfacet
  facet normal 0.000000 -0.000000 1.000000
    outer loop
      vertex 4.052684 5.081905 7.500000
      vertex 1.371678 1.720029 7.500000
      vertex 5.370552 3.661580 7.500000
    endloop
  endfacet
  facet normal 0.000000 0.000000 1.000000
    outer loop
      vertex -0.489546 2.144841 7.500000
      vertex 1.371678 1.720029 7.500000
      vertex 4.052684 5.081905 7.500000
    endloop
  endfacet
  facet normal 0.000000 -0.000000 1.000000
    outer loop
      vertex 6.211223 1.915909 7.500000
      vertex 2.200000 0.000000 7.500000
      vertex 6.500000 0.000000 7.500000
    endloop
  endfacet
  facet normal 0.000000 0.000000 1.000000
    outer loop
      vertex 6.500000 0.000000 7.500000
      vertex 1.371678 -1.720029 7.500000
      vertex 6.211223 -1.915909 7.500000
    endloop
  endfacet
  facet normal 0.000000 -0.000000 1.000000
    outer loop
      vertex 1.371678 -1.720029 7.500000
      vertex -0.489546 -2.144841 7.500000
      vertex 6.211223 -1.915909 7.500000
    endloop
  endfacet
  facet normal -0.000000 0.000000 1.000000
    outer loop
      vertex -0.489546 -2.144841 7.500000
      vertex -1.982132 -0.954544 7.500000
      vertex -5.856298 -2.820244 7.500000
    endloop
  endfacet
  facet normal 0.000000 0.000000 1.000000
    outer loop
      vertex 1.371678 1.720029 7.500000
      vertex 2.200000 0.000000 7.500000
      vertex 6.211223 1.915909 7.500000
    endloop
  endfacet
  facet normal -0.000000 0.000000 1.000000
    outer loop
      vertex -1.982132 -0.954544 7.500000
      vertex -1.982132 0.954544 7.500000
      vertex -5.856298 -2.820244 7.500000
    endloop
  endfacet
endsolid OpenSCAD_Model
